<svg id="Layer_1" data-name="Layer 1" xmlns="http://www.w3.org/2000/svg" viewBox="0 0 594.96 142.5"><defs><style>.cls-1{fill:#454545;}</style></defs><title>logo-3</title><path class="cls-1" d="M102.5,139.3c0,.3.1.2-.2.2C102.3,138.8,102.2,139.5,102.5,139.3ZM138.1,0h.5a2.34,2.34,0,0,1,2.1,1.9c.3,1.4-.1.5.6,1.6a2.45,2.45,0,0,1-.4,3.1c-1.1,1-2.6,0-5.3,1.2-.8.4-.5.5-1,1.1a5.8,5.8,0,0,1-1.2,1c-.9.6-1.2,1.5-2.1,2.1-.4.3-.9.5-1.3.8a6.33,6.33,0,0,1-4.8,1.5c.2.9,1.2,2.2,1.6,3.9,1.2,5.8-5.7,10.7-11.6,5.2-.9-.9-1.7-2-2.6-2.9-3.6-3.4-5.6-.6-4.6,2.5a13.7,13.7,0,0,0,1.9,3.6c.7,1.1,1.5,2.1,2.3,3.2l10.6,11.4c.5.5.8.9,1.3,1.5a41.36,41.36,0,0,1,3.7,4.6c.4.6.7,1,1.1,1.6,2.9,4.7,4.6,9.3,2.8,14.9-2.9,9.4-13.2,14.2-22.7,11a6.3,6.3,0,0,0-2-.6l-3.8,1.7a24.09,24.09,0,0,1-14.3.9c-1.4-.4-3.1-1.3-3.8-1.5a8.93,8.93,0,0,1-3.2,2.9c-5.5,3.5-10,3-13.6,4.7,2,3.8,7.5,4.7,10.7,2.2,1.2-1,1.3-2.8,2.9-3.1,4.6-.8,3.6,6.9-2.2,9.9A13.6,13.6,0,0,1,67,91.5a17.55,17.55,0,0,1-4.4-3.6,8.31,8.31,0,0,0-.3,5.2c1.9,5.9,11.5,3.9,16.2,3,5.1-1,10-2.5,15.1-3.2a36.41,36.41,0,0,1,8.7-.3c4.7.6,9.3,2.6,11.5,6.9a12.46,12.46,0,0,1,.7,10,10.53,10.53,0,0,1-5.8,6.4,7.18,7.18,0,0,1,1.6,2.7c.8,2.4-.1,4.6.2,5.6a4.25,4.25,0,0,1,.5,1.7c.2,1.5-1.2,5-2.1,6.1-.6.7-.4.4-.8,1.4-.5,1.2-1.2,1.4-1.3,2.8a5.54,5.54,0,0,0-.2,1.8c.2,1.1,1,2,.2,3.3a2.2,2.2,0,0,1-1.7,1.2h-.6a1.42,1.42,0,0,1-.6-.2c-1.1-.5-.2-.4-1.5-.2a2,2,0,0,1-1.5-.4,2.34,2.34,0,0,1-.8-3c.6-1.3,1-1.4,1.3-2.9.1-.9.3-1.1,0-1.7a3,3,0,0,1-.5-1.6,3.42,3.42,0,0,0-.4-1.8,13.22,13.22,0,0,1-.5-3.3,7.39,7.39,0,0,1,0-2.1c.1-1.3.8-1.9,1.4-2.8a9.65,9.65,0,0,1-4.5-.5,5.82,5.82,0,0,1-3-2.3,6.43,6.43,0,0,1,.4-7.8c3.6-3.8,10.3-2.6,10.8-5.1.4-1.9-.8-2.7-2-3.2-4.2-1.6-14.4,1.2-18.1,2.1-6.9,1.7-11.2,2.8-18.3,2.8-12.1,0-19.9-12.8-14.2-24.4a20.81,20.81,0,0,1,4.6-5.9c.5-.4,1.2-.7,1.3-1.4.4-2.6-.1-3,1-6.8a22.68,22.68,0,0,1,3.3-7.2,16.83,16.83,0,0,1,2.4-2.9,12.15,12.15,0,0,1,3-2.2c0-.7-.4-1.6-.5-2.4-.8-4,.2-8.3,1.4-11.9.3-1,.8-3.7,1.1-4.4a6.71,6.71,0,0,0-3.3.7,8.1,8.1,0,0,0-2.3,1.7c-3.9,4.8-.6,7.7-.5,8.8a2.45,2.45,0,0,1-1.4,2.5c-2,.9-4.2-1.7-4.9-2.7a8.89,8.89,0,0,1-1.2-6.4,13.5,13.5,0,0,1,6.2-9.7c1.1-.7,4-2.2,5.6-2.2-.3-1.2-2.6-2.4-3.7-2.8a5.46,5.46,0,0,0-5.1,1c-2.3,1.9-3.9,4.9-5,8-2.3,6.4-3.9,13.3-6.6,19.6a27.86,27.86,0,0,1-3.6,6.3,17.23,17.23,0,0,1-5.1,4.6c-6.5,3.8-14.8.3-17.2-5.6a11.58,11.58,0,0,1-.9-5.5c-2.2,1.1-5-.3-6.6-1.6-2.2-1.8-3.1-.2-5.4-3.4-.3-.5-.7-.7-1.1-1.2-.6-.8-.9-2.1-1.6-2.9-1.2-1.3-.1-1.2-1.8-2.6-2.3-1.8-3.3-.7-4.3-2.3a2.3,2.3,0,0,1,.6-3.1,1.42,1.42,0,0,1,.4-.2c.7-.6.5-1.6,1.7-2.2,2.7-1.2,3.1,2,4.3,3A3.45,3.45,0,0,0,9.4,42c1.4.1,1.8.7,3.5,1a18.47,18.47,0,0,1,4.5,2.1,5.46,5.46,0,0,1,1.8,2.4c.8-.6,2.2-4.8,6.3-4.9,3.6-.1,5.7,1.7,6.6,4.4,1.7,4.8-4.2,11.6.3,12.5,5.2,1.1,9.6-17.2,10.9-22,.4-1.3.9-2.8,1.4-4.1,2.6-7.8,7.3-16.1,16.6-16.5.7,0,.8-.1,1.2-.1l3.6.5c7.1,1.8,11.7,7,13.5,14,.4,1.5,0,2,1.4,2.8a27.54,27.54,0,0,1,5.2,4.4,23.17,23.17,0,0,1,3.4,4.8,17.91,17.91,0,0,1,2.5,8.5,16.37,16.37,0,0,1,4.8,1.8c2.8,1.5,4.8,3.8,7,6,.7.7,2.4,2.8,3.3,3.1a14.67,14.67,0,0,1,.6-1.4,7.32,7.32,0,0,0-4-8.9c-1.5-.6-2.2-.1-3.2-.4-2.8-.9-2.4-4.8,2.7-5.3,6.1-.6,11.1,5.7,11.9,11.5a15.46,15.46,0,0,1-.4,5.3,8,8,0,0,0-.3,1.5,7.15,7.15,0,0,0,4.5-2.2c4.1-4.9-2.1-11.6-5.2-15.3l-3.2-3.4c-1.8-1.8-5.3-5.7-7-7.8-.3-.3-.4-.5-.7-.8-3.3-4.3-8.2-12.1-4.6-19.3A12.43,12.43,0,0,1,111,9.5c3.1.4,3.5,1.5,4.7,1.8a7.06,7.06,0,0,1,4-4.6c2.6-1.3.7.3,2.6-1.6A4.28,4.28,0,0,1,125,3.6c.6-.1,1.3-.2,1.8-.3a37.86,37.86,0,0,1,5.8-.1,3.06,3.06,0,0,0,1.7-.4c2.4-1.3,2.4-2.7,3.8-2.8ZM104.6,139.6c.1.2.2.1,0,.4l-.2-.4-.7-1.4c-.8.4-.6.7-1.3,1.1.7-2,1-.4,1.5-5.6-.4-.5-.8-.6-.9-1.5-.2-2-.8-2.4-.8-4.1a15.48,15.48,0,0,1-.1-2.1c.1-1.6,1.4-2,1.7-3.2,1.1-4.7-7.3-.1-8.8-5.5-1.7-6.3,7.9-5.3,10.9-7.9,2.1-1.7,1.5-5.1-.2-6.7-3.4-3.1-11.8-1.5-16.2-.5-9.3,2.1-23.7,7.4-31.5,1.1a14.48,14.48,0,0,1-5.1-13.8c.7-4.3,4.1-9.3,7.8-11.3a22.59,22.59,0,0,1,2.7-12.3c1.6-3,4.4-6.4,7.8-7.3-.2-.7-.8-1.3-1.1-2.3a15.36,15.36,0,0,1-.1-8.5c.8-3.6,2.4-6.7,2.4-10.6-.7-1-4.9-.3-5.9.1a9.75,9.75,0,0,0-6.1,7.6c-.4,2.8.3,3.4,1.1,5.6a5.78,5.78,0,0,1-2-2.1c-2.9-5.5,2.2-14.8,12.4-14.8,0-2.7-4.1-6.5-7.4-7.1-4.9-1-7.7,2.6-9.4,5C48.9,40.3,47.6,68,33,67.8A9.87,9.87,0,0,1,24.2,62a9.34,9.34,0,0,1-.4-6.2c.6-2.7,2-4.5,1.2-5.2-.7.1-.9.7-1.2,1.3a5.42,5.42,0,0,1-4.2,3.5,4.78,4.78,0,0,1-3.7-1.3c-.5-.4-.8-.9-1.5-1.1-1.5-.5-2.5-.1-3.4-1.7a8.7,8.7,0,0,0-1.2-1.4A7.5,7.5,0,0,1,9,48.1c-.4-.7-.7-.9-1-1.4-.7-1.1.3-1-.8-1.8-2-1.5-2.3-2.2-4.9-2.7l2-.1-.3-2A5.48,5.48,0,0,0,6.3,43c3,2.5,1.6.9,3.4,1.4a13.77,13.77,0,0,0,2,.8c.9.2,1.4.1,2.1.6l1.7.9c2,1,1.6,4.1,3.9,4,1.4,0,1.8-1.7,2.5-2.8,1.4-2.2,3.7-4,6.8-1.9,2.6,1.8,1,5.7.3,8.2-1.1,3.6-.9,6,2,7.4,5.3,2.5,9.1-6,10.6-9.8,3.6-9.8,5.8-24.5,12.7-29.7a14.3,14.3,0,0,1,16.2-.6,14.69,14.69,0,0,1,5.1,5.4c2.4,4.2,1.8,7.7,2.8,8.3,1.6,1.1,2.3,1.1,4.3,2.9,4.4,3.9,7.8,9.2,7,16,4.8-.3,8,2.5,10.3,4.6a16.24,16.24,0,0,1,1.8,2,31.21,31.21,0,0,0,5.8,5.1,9,9,0,0,0,2.6-4.5,9.8,9.8,0,0,0-3.6-10c-1.9-1.5-3.1-1.4-5.3-1.7,5-3,12.2,3.5,11.5,11.3-.2,2.8-1,4-2,6.1,2.7,1.5,8.5-.7,10.5-3.7,2.3-3.5.8-8.1-1.1-11.2a36.74,36.74,0,0,0-4-5.3l-7.9-8.6a38.5,38.5,0,0,1-7.7-10.8c-4.4-9.9,2.9-17.5,10.7-15.7,4.6,1.1,6.7,5.8,7.6,6.2,1.9.8-.5-2.7-.7-3.3a4.54,4.54,0,0,1,2.7-6.2c2.3-.9,1.2,0,2.9-1.9.9-1,2.1-1,3.6-1.3a5.86,5.86,0,0,1,2.3.1c.8.1,1.4-.3,2.1-.2,1,.1.6.6,1.8.2A17.5,17.5,0,0,0,137,3.8c.5-.4.6-.8,1.1-1.2-.2.6-.6,1-.8,1.5a4.76,4.76,0,0,0,1.8.5c-1.6.3-1.5-.3-3.4.5a15.63,15.63,0,0,0-2.6,1.1c-.3.9-.2,1.1-1,1.6-1.1.7-1.6,1.9-2.7,2.5-.3.2-.6.2-.8.4-.4.2-.4.3-.7.6-1.6,1.3-2.7.1-4.3.6a1.94,1.94,0,0,0-1,3.1c1.4,2.2,2.8,5,.6,7.3-2.4,2.5-5.4.8-7-.9-1.2-1.4-3.3-4-5.6-4.7-2.9-.8-5.5,1.8-5.5,4.5,0,4.5,4.5,10,7.4,12.9a17.41,17.41,0,0,1,1.2,1.4c.4.5.9.8,1.3,1.3,1.7,1.8,4.8,4.8,6.2,6.6l2.3,2.7c2.7,3.2,5.6,7.3,6.1,11.7a14,14,0,0,1-6.8,13.6A16.62,16.62,0,0,1,110.2,73c-1.3-.3-2.7-1.1-3.8-1.3-.8.4-1.3.9-2.3,1.4-.8.4-1.8.8-2.6,1.1-4.8,1.6-10.6,1.9-15.2-.5-.8-.4-1.5-1-2.2-1.4-1.9,5.1-8.9,6.4-13.8,7.7-2.6.7-3.9,1.5-5.3,1.9a8.08,8.08,0,0,0,1.1,2.7A8.59,8.59,0,0,0,72.6,89a8.74,8.74,0,0,0,9.6-4.4c.4,5-6.2,7-10.2,6.5-4.6-.6-7.4-3.4-9.7-7a10.38,10.38,0,0,0-2.4,10.3c3.9,10.3,23.7,2.8,31.7,1.4,8.6-1.5,17-1,20.1,5.8,1.6,3.6.5,8.5-1.7,10.6-4.5,4.2-8.9,2.6-9.6,4,.4,1,1.9.4,3.1.5,3.5.3,5,2.9,4.1,6.7-.3,1.3.6,1.8.6,3.1a12.67,12.67,0,0,1-.9,3c-.4,1.2-1,1.4-1.5,2.3-.8,1.7,0,1.1-1.6,2.2-.1,1.1-.3,2-.4,3.1C104,138.3,104.4,138.3,104.6,139.6ZM577.5,65.4H556.3V43.5h22.1a9,9,0,0,1,9.2,8.9c0,4.4.5,7.5-2.9,10.7a10.37,10.37,0,0,1-7.2,2.3ZM548.9,36.7v64.6c0,.4.1.5.5.5h6.9v-29h13.1c.5,0,1.9,2.6,2.3,3.4l8.4,14.6c.8,1.2,1.4,2.4,2.1,3.7l4.3,7.3h8.4c-2.7-5.1-6.6-11.2-9.3-16.2-.8-1.6-7.2-12.2-7.3-12.8a22,22,0,0,0,3.6-.4,12.54,12.54,0,0,0,3.1-1,16.43,16.43,0,0,0,9.9-14.8V52.5a16.26,16.26,0,0,0-16.2-16.2H549.4C549.1,36.2,548.9,36.3,548.9,36.7ZM211.5,65.4H190.3V43.5h22.3c4.8,0,8.9,4,8.9,8.2s.6,8.6-3,11.4a9.25,9.25,0,0,1-2.9,1.7A13.09,13.09,0,0,1,211.5,65.4ZM183,101.7h7.3v-29h13.1c.5,0,.7.7,1.2,1.6.4.7.7,1.1,1.1,1.8,1.6,2.9,3.7,6.2,5.2,9.1l9.5,16.5h8.4c-.2-.9-3.4-6-4.1-7.2l-5.2-9c-2.2-3.9-5.4-9-7.4-12.8a17.39,17.39,0,0,0,6.7-1.3,10.78,10.78,0,0,0,2.6-1.4,18.74,18.74,0,0,0,5.7-6.2c2.2-4.2,1.7-7.8,1.7-12.5a14.93,14.93,0,0,0-3.1-8.5,15.78,15.78,0,0,0-12.9-6.6H183ZM366,43.5h33.6L387,65.3c-4.2,7.1-8.4,14.9-12.6,21.8-.7,1.2-1.4,2.3-2.1,3.6s-1.4,2.4-2.1,3.7l-4.2,7.4h42c.5-.9,4-6.6,4.1-7.3H378.6l2.1-3.6c.7-1.3,1.4-2.4,2.1-3.7,3.4-5.7,7-12.4,10.4-18.1l12.6-21.8c.6-1,6-10.2,6.2-11H366Zm-95.2,58.2h7.9c.2-.8.8-2,1.1-2.9l3.5-8.6c1.5-3.8,3.1-7.6,4.7-11.5l9.2-23c.6.7,15.7,38.6,17.5,43a18.15,18.15,0,0,1,1.1,3h7.9L298,38.2a6.89,6.89,0,0,0-.4-1,2.57,2.57,0,0,0-.2-.5.85.85,0,0,0-.3-.5L277.3,85.3,274,93.4c-.5,1.3-1.1,2.8-1.7,4.1ZM457.5,43.5h41.9c.2-1.1,3.9-6.3,4-7.3H457.6Zm0,58.2h41.9c.1-.6,3.5-6.2,4.1-7.3h-46Zm0-29.5c0,.4.1.5.5.5h40.9c.5,0,.8-.9,1.3-1.6l2.2-3.8c.4-.7.7-1.3,1.1-1.9h-46Z" transform="translate(0.06 0)"/><path class="cls-1" d="M69,72.1c.3-1.2,1.6-2.5,2.2-3.3a10,10,0,0,1,4.4-2.9,1.39,1.39,0,0,1,1.3.4c0,2.1-1.5,2.9-3.2,3.7A21.83,21.83,0,0,1,69,72.1Zm-4,4a67.76,67.76,0,0,0,9.7-3.9,12.73,12.73,0,0,0,3.8-2.9c3.6-4.4-2.5-8.9-8.9-2.1A16.47,16.47,0,0,0,65,76.1ZM80.3,54.7h-.5c-1.9,0-1.3-6.2-1.2-7.3a20.61,20.61,0,0,0,.3-2.6l.1.2c.1.2.1.1.2.3C81.5,48.6,82,54.7,80.3,54.7ZM77.5,39.6c-.5,4.3-2.9,12.2-.2,16.1a3.13,3.13,0,0,0,4.3,1c3.6-2.3,1.7-9.9-1-13.9C79.9,41.9,78.2,39.7,77.5,39.6ZM88.4,63.8c0-2.8,5.2.4,5.7.8l3.6,2.7a15.77,15.77,0,0,1-5.6-.8C91.3,66.3,88.4,65,88.4,63.8Zm14.6,5-3.5-3c-12-10.4-15.6-3.2-12,.5C91.6,70.5,97.8,70,103,68.8Z" transform="translate(0.06 0)"/><path d="M65,76.1a16.47,16.47,0,0,1,4.6-8.9c6.4-6.8,12.5-2.2,8.9,2.1a11.28,11.28,0,0,1-3.8,2.9A67.76,67.76,0,0,1,65,76.1Zm38-7.3c-5.1,1.2-11.3,1.8-15.5-2.5-3.7-3.7,0-11,12-.5ZM77.5,39.6c.7.1,2.4,2.3,3.1,3.2,2.7,3.9,4.6,11.5,1,13.9a3,3,0,0,1-4.3-1C74.6,51.8,77,43.9,77.5,39.6Zm25,99.7c.7-.3.5-.7,1.3-1.1l.7,1.4h.2c-.2-1.3-.6-1.3-.4-2.8.2-1.1.3-2,.4-3.1,1.6-1.1.8-.6,1.6-2.2.5-1,1.1-1.1,1.5-2.3a11.43,11.43,0,0,0,.9-3c-.1-1.2-1-1.8-.6-3.1.9-3.8-.6-6.3-4.1-6.7-1.2-.1-2.8.4-3.1-.5.7-1.4,5,.2,9.6-4,2.3-2.1,3.3-7,1.7-10.6-3.1-6.8-11.5-7.3-20.1-5.8-8,1.4-27.8,9-31.7-1.4a10,10,0,0,1,2.4-10.3c2.3,3.6,5.1,6.4,9.7,7,3.9.5,10.5-1.5,10.2-6.5a8.74,8.74,0,0,1-9.6,4.4,9,9,0,0,1-6.5-4.4,8.08,8.08,0,0,1-1.1-2.7c1.4-.4,2.7-1.3,5.3-1.9,4.9-1.2,11.9-2.6,13.8-7.7a13.45,13.45,0,0,1,2.2,1.4c4.6,2.3,10.4,2.1,15.2.5a20.29,20.29,0,0,0,2.6-1.1,23.21,23.21,0,0,0,2.3-1.4c1,.2,2.4,1,3.8,1.3a16.62,16.62,0,0,0,12.6-1.6,14,14,0,0,0,6.8-13.6c-.5-4.4-3.4-8.4-6.1-11.7l-2.3-2.7c-1.5-1.8-4.5-4.8-6.2-6.6-.4-.5-.9-.8-1.3-1.3a17.41,17.41,0,0,0-1.2-1.4c-2.9-2.9-7.5-8.3-7.4-12.9,0-2.7,2.6-5.3,5.5-4.5,2.3.6,4.3,3.3,5.6,4.7,1.6,1.7,4.6,3.4,7,.9,2.2-2.3.8-5.1-.6-7.3a1.9,1.9,0,0,1,1-3.1c1.6-.5,2.7.7,4.3-.6.3-.2.3-.3.7-.6s.5-.2.8-.4c1.1-.6,1.6-1.8,2.7-2.5.8-.5.7-.6,1-1.6a15.63,15.63,0,0,1,2.6-1.1c1.8-.7,1.7-.2,3.4-.5a4.76,4.76,0,0,1-1.8-.5c.2-.6.6-.9.8-1.5a4.15,4.15,0,0,0-1.1,1.2A17.5,17.5,0,0,1,134.1,5c-1.1.5-.8-.1-1.8-.2-.7-.1-1.2.3-2.1.2a5.86,5.86,0,0,0-2.3-.1c-1.5.3-2.7.3-3.6,1.3-1.7,1.8-.5.9-2.9,1.9a4.54,4.54,0,0,0-2.7,6.2c.2.6,2.6,4,.7,3.3-.9-.4-3-5.1-7.6-6.2-7.8-1.8-15,5.8-10.7,15.7a38.5,38.5,0,0,0,7.7,10.8l7.9,8.6a30.67,30.67,0,0,1,4,5.3c1.9,3.1,3.4,7.7,1.1,11.2-2,3-7.8,5.2-10.5,3.7.9-2.1,1.7-3.3,2-6.1.7-7.8-6.5-14.3-11.5-11.3,2.2.3,3.4.2,5.3,1.7a10,10,0,0,1,3.6,10,9,9,0,0,1-2.6,4.5,35.33,35.33,0,0,1-5.8-5.1c-.7-.7-1.1-1.3-1.8-2-2.3-2.1-5.5-4.9-10.3-4.6.8-6.7-2.6-12-7-16-2-1.8-2.6-1.8-4.3-2.9-1-.6-.4-4.2-2.8-8.3A15.55,15.55,0,0,0,71,21.2a14,14,0,0,0-16.2.6c-7,5.2-9.1,19.9-12.7,29.7-2,4-5.8,12.5-11.1,9.9-2.9-1.4-3.1-3.8-2-7.4.8-2.5,2.3-6.4-.3-8.2-3.1-2.2-5.4-.3-6.8,1.9-.7,1.1-1.1,2.8-2.5,2.8-2.3.1-1.9-3-3.9-4l-1.7-.9a6.46,6.46,0,0,0-2.1-.6,13.77,13.77,0,0,1-2-.8c-1.8-.4-.4,1.1-3.4-1.4A7.25,7.25,0,0,1,4,39.9l.5,1.9-2,.1c2.6.5,2.9,1.1,4.9,2.7,1,.8.1.7.8,1.8.3.5.7.7,1,1.4a7.5,7.5,0,0,0,.8,1.8c.4.6.7.6,1.2,1.4.9,1.5,1.9,1.2,3.4,1.7.7.2,1,.8,1.5,1.1a4.92,4.92,0,0,0,3.7,1.3c2.2-.2,3.3-1.7,4.2-3.5.3-.6.5-1.2,1.2-1.3.8.7-.6,2.6-1.2,5.2a9.39,9.39,0,0,0,.4,6.2,10,10,0,0,0,8.8,5.8c14.5.4,15.8-27.3,22-36.1,1.7-2.4,4.6-6,9.4-5,3.2.7,7.3,4.4,7.4,7.1-10.2,0-15.3,9.3-12.4,14.8a5.78,5.78,0,0,0,2,2.1c-.8-2.2-1.6-2.8-1.1-5.6a9.29,9.29,0,0,1,2.1-4.7,9.66,9.66,0,0,1,4-2.9c1-.4,5.2-1.1,5.9-.1,0,3.9-1.6,7-2.4,10.6-.6,2.7-.9,5.9.1,8.5.3.9.9,1.6,1.1,2.3-3.4.9-6.2,4.3-7.8,7.3a22.59,22.59,0,0,0-2.7,12.3c-3.7,2-7,7-7.8,11.3a14.27,14.27,0,0,0,5.1,13.8c7.8,6.3,22.2,1,31.5-1.1,4.4-1,12.8-2.6,16.2.5,1.8,1.6,2.3,4.9.2,6.7-3.1,2.5-12.6,1.6-10.9,7.9,1.5,5.5,9.9.9,8.8,5.5-.3,1.2-1.6,1.6-1.7,3.2a14.77,14.77,0,0,0,.1,2.1c0,1.7.6,2.1.8,4.1.1.9.4,1,.9,1.5-.5,5.3-.8,3.7-1.5,5.7Z" transform="translate(0.06 0)"/></svg>