<svg id="Layer_1" data-name="Layer 1" xmlns="http://www.w3.org/2000/svg" viewBox="0 0 297.69 92.44"><title>logo-9</title><path d="M0,52.63,15.16,67.81V54.3l-4.88-4.89v-13l8,12.34V92.44l7.17-18.06,8.14-8.14V10.93l-9.3,25.68L8.83,21.18,0,0ZM62.14,21.18,46.71,36.61,37.39,10.93V66.24l8.16,8.14L52.7,92.44V48.71l8-12.34v13L55.79,54.3V67.81L71,52.63V0Z"/><path d="M62.14,21.18,46.71,36.61,37.39,10.93V66.24l8.15,8.14L52.7,92.44V48.71l8-12.33v13L55.8,54.3V67.81L71,52.63V0h0ZM0,52.63,15.16,67.81V54.3l-4.88-4.89v-13l8,12.33V92.44l7.17-18.06,8.14-8.14V10.93l-9.3,25.68L8.82,21.18,0,0Z"/><path d="M105.09,28.66H85.56L82,34.72h1.66v17L91,48V42.38l5.39,2.41,13.49-10.07ZM91,41.06V34.58l7.38.14.76.76Z"/><polygon points="111.45 28.66 133.32 28.74 138.06 34.54 129.77 43.73 140.63 57.23 119.98 42.3 127.21 35.66 126.83 34.69 119.22 34.69 119.22 48.03 111.45 52.02 111.45 28.66"/><polygon points="268.51 28.66 290.37 28.74 295.12 34.54 286.83 43.73 297.69 57.23 277.03 42.3 284.27 35.66 283.89 34.69 276.27 34.69 276.27 48.03 268.51 52.02 268.51 28.66"/><polygon points="139.95 28.66 139.95 51.12 156.16 51.12 159.7 45.06 147.63 45.06 147.63 43.25 156.35 43.25 159.85 37.18 147.71 37.18 147.71 34.65 158.45 34.65 161.69 28.7 139.95 28.66"/><path d="M185.59,28.66l-19.74.15-3.36,6H164V51.09h21.55L187.36,48V31.72Zm-5.53,16.47h-8.64V34.77l8.64,0Z"/><path d="M263.09,28.66l-19.75.15-3.36,6h1.55V51.09h21.56L264.86,48V31.72Zm-5.54,16.47h-8.63V34.77l8.63,0Z"/><path d="M212.54,28.7l-19,0L190,34.75h1.66v17L199,47.9V43.44h7.73v8.32l7.76-4V32Zm-5.8,8.8H199V34.94h7.73Z"/><polygon points="219.02 28.66 215.44 34.96 223.66 34.96 223.66 52.06 231.38 47.94 231.38 35.04 236.55 35.04 240.01 28.77 219.02 28.66"/></svg>