<svg id="Layer_1" data-name="Layer 1" xmlns="http://www.w3.org/2000/svg" viewBox="0 0 2497.8 1465.57"><title>logo-7</title><path d="M1501.9,185.63c-3.9,1.14-4.91,2.9-8.78,6.2-3.11,2.67-5.74,4.56-8.76,7.16-6.92,6-11,9.64-17.06,14.75-30.19,25.4-71.15,65-100.75,92.68-45.91,43-87.28,84.39-131.33,127.14C1152.16,514.2,1058,611,974.89,688.75,906.18,753,847.26,810.69,775.46,874.91c-27.44,24.54-44.73,46.9-82.09,48.19-61.66,2.13-143-50.35-184.58-74.21-36.34-20.86-132.87-77.62-179.41-79.2l34.09,46.84c24.38,37.2,65.37,118.22,85.06,157.65,67.63,135.45,158.94,277.28,275.14,371.63,29.72,24.13,56.64,44.41,94.38,67.24,16.56,10,33.45,18.35,52,28.83,6.42,3.63,50.93,24.42,56.42,24.41-12.19-12.22-24.73-27.15-34.64-38.79-44.24-52-142.65-153.19-172.21-204.82-24.82-43.35-30.53-69.9-3-113.41C748.16,1059.53,821.69,998,867.81,958.53c112.25-96,213.48-183,330.93-274.11,55.64-43.18,113.5-87.24,173.34-129.94,58.71-41.89,117.72-82.25,179-122.76l92.54-58.89c8.58-4.92,92.87-55.1,94.21-56.78l82.48-45.5c27.7-15.65,54.6-28.71,83.93-44.51,86.07-46.35,257-121.89,355-156.45,32.16-11.34,62.79-22.06,95.32-33.17L2452,5.89C2444.11,1.83,2336.41.72,2316.57.71,2236.72.7,2187.72,2.93,2111.49,9c-58.35,4.61-166.93,16.59-220,29.42-9.55,2.31-20.86,3.29-30.47,5.83-18.4,4.84-39.46,8.18-58.3,12.87-38.85,9.67-74.12,20.63-110.63,31.52-37.58,11.2-71.58,24.48-105.2,38.31-19.86,8.18-79.89,48.31-85,58.73Zm780,192.9,70.88-36.2c24.59-11.7,50-25.16,73.17-36.48,47-23,74.05-97.35,73.37-145-8.3.35-42.05,16.35-51.22,19.7-6.3,2.31-12.11,4.29-18,6.8-41.85,17.79-97.73,38.82-137.41,57.54-11.52,5.44-22.66,9.94-34.32,14.94-9.15,3.92-29.33,11.84-33.09,16.51-12.6-.64-269.05,126.45-301,143-45.51,23.53-102.74,51.74-146.49,76.08-5.18,2.88-138.54,73.46-143.85,80.26-8.78,1.46-100.19,55.74-114.78,64-180.89,102.06-381.21,230.46-554.47,348-48.15,32.66-109.65,75.5-158,112l-38.85,29c-4.47,3.4-9.73,5.66-12.31,10.77,17.28,14.87,131.71,62,159,71.86,153.21,55.22,296.62,93.69,457.83,121.36l102.3,15.64,80.58,7.11-65.63-5.79c12.53,1.43,25,3.46,37.15,4.63,18,1.72,35.9,3.19,54.46,5.05,35,3.51,75.56,5.9,111.51,6.53,44.68.79,69.3,3.07,105.93-12.4,28.4-12,51.51-26.91,74.08-44.21,84.08-64.43,158.88-165.2,218.56-256.41,62.45-95.44,118.7-202.08,167.19-307.73,24.69-53.81,47.86-110,69.68-167.15,11.05-29,20.64-57,30.63-87.74,5.53-17,25.65-79.2,27.18-93.09-22.93,3.13-423.95,219.49-462.1,240-51.75,27.78-101.31,56.72-151.52,84-48.79,26.5-100.4,57.82-149,84.81-98.65,54.82-198,115.89-296.49,172.93-16.89,9.77-142.33,83.1-146.83,88.26,8.43-1.36,406.12-172.14,415.75-176.12,18.75-7.75,409.22-175.31,415.62-175.59-2.24,9-26.41,54.15-32.51,67.41-10.17,22.1-22.43,47.25-33.53,69.22-63,124.56-131.31,274.13-268.78,329.34l-8.26,5c-7.37.17-27.5,8.35-36.37,10.78-13.36,3.67-26.28,6.22-39.75,9-63.36,13-159.15,6.21-225.19-4.12-75.29-11.78-128-25-201-42.64-17.42-4.21-143.35-39.59-150.63-44.4,4.11-7.15,76.13-53.3,82.43-57.68,139.35-96.86,370.83-239.19,521.36-324.84,15.94-9.07,30.74-17.3,45.31-25.65,12.11-6.94,34.28-18.51,44.06-25.62L1779,642.33c23.81-13.22,45.68-24.66,70.77-39,47.42-27.06,95.47-49.75,142.15-76,6.87-3.87,273.42-143.94,290-148.78Zm-1812,731.13c-2.77-5.88-50.9-57-60.47-67.63-60.7-67.77-119.54-130.91-180.55-202.11-42.51-49.61-80.37-95.32-116.49-139.15C97.24,682.44,14.29,578.31,1.62,557.08,0,561.16,20.88,646.51,24,657.73c4.72,17.21,8.38,32.88,13.21,50.44,47.13,171.61,94.24,236.56,256.55,319.5,20,10.21,165.35,80.52,176.14,82Z" transform="translate(-1.53 -0.71)"/></svg>