<svg id="Layer_1" data-name="Layer 1" xmlns="http://www.w3.org/2000/svg" viewBox="0 0 2040.99 2499.59"><defs><style>.cls-1{fill:#fff;}.cls-2{fill:#5c5c5c;}</style></defs><title>logo-8</title><path class="cls-1" d="M909.38,91.36c96.47-.28,192.95,0,289.42-.11-22.14,21.86-42.78,45.18-65,66.94-67,.39-134,.06-201,.17V321.94h165V271.61H1035.5Q1004.72,240.9,974,210.15c71.47-.12,143,0,214.53-.06,0,37.47,0,74.94.06,112.41-18.74,19-37.75,37.64-56.32,56.71-5.09,4.31-9.67,11.52-17.45,9.79q-102.67.18-205.41,0c-21.26-22.59-44.47-43.22-66.16-65.27-3.2-54.13-1.07-109.11-1-163.53,20.52-24.49,45.24-45.41,67.1-68.84ZM691.27,196.28c36.29-11.47,72.48-23.38,109.34-32.94-8.23,18.23-16.5,36.46-24.67,54.75-24.78,7.6-49.5,15.21-74.33,22.6-.11,37.41,1.63,74.77,1.68,112.18,20-6.32,40-12.25,60.23-18,0-11.3-.06-22.6.06-33.84-7.94,2-15.83,4-23.72,6-7.94-12-15.83-24-23.27-36.19,26.51-8.33,53.3-16,80.15-23.49,1.29,26.57,3,53.19,1.18,79.76-6,18.28-15.55,35.12-23.16,52.79-26.73,7.33-53.3,15.33-79.75,23.6-8.33-13.92-20.81-25.84-26.28-41.16,0-37.2-3.53-74.5-1-111.63,6.33-18.74,15.5-36.4,23.5-54.47Zm570.39-14.43c44,9.73,87.08,23.49,130.26,36.3-10.4,9.11-21.25,17.67-31.94,26.45-25-6.49-49.66-14.43-74.77-20.64q-6,8.55-11.8,17.23c3.36,6.88,6.71,13.81,10.12,20.75,26.79,8.17,53.69,15.71,80.37,24.33,6.55,23,16.33,45.24,20.2,68.9-6,16.5-14.32,32.1-21.43,48.15-43.06-12.36-86.85-22.09-130.36-32.71,8.89-11.81,18-23.49,27.07-35.18,25.73,6.37,51.5,12.75,77,20.14,1.9-3.31,5.7-10,7.6-13.26-3-7.89-6.15-15.72-9.12-23.49-25.49-8.28-51.16-15.94-77.06-22.71-9.23-21.14-18.57-42.28-27.57-63.53,10.67-16.78,21.47-33.51,31.42-50.73Zm-649,34.73c9.51-2.85,19.19-5.65,28.75-8.5,3.81,68.45,1.23,137.13,5.09,205.64-8,2.07-15.94,4.19-23.77,6.21-21.64-32.66-45.24-64-66.72-96.75,1.12,38.7-.05,77.4,2.18,116-10.12,15.16-19.12,31-29.36,46-1.67-79.2-2.07-158.39-4.64-237.52,7.21-2.8,14.43-5.54,21.7-8.28,23.21,31.2,44.85,63.59,67.84,95,1.56-39.31-2.07-78.52-1.07-117.78Zm797.29,6.6c45.08,14.43,89.77,30.09,133.73,47.7Q1527,283,1510.48,295.05c-22-7.72-43.89-15.95-66-23.32-1.24,13.58-2,27.23-3.14,40.82,29.64,10.51,59.23,21.31,88.42,33.16-13.25,8.73-24.38,21.37-39.2,27-17.45-5-34.06-12.59-51.4-18-.78,11.13-1.51,22.21-1.79,33.34,30.54,8.55,60.07,20.36,90.16,30.37-15.66,8.61-29.86,33.11-50,23-26-8.73-52.23-16.78-78.57-24.55,3.24-64.6,7.66-129.19,11-193.79ZM468.45,270.1q16.08-6.39,32.28-12.47c-.12,67.73,3.35,135.34,2.68,203-10.29,14.94-20.14,30.2-30.59,45q-.93-117.78-4.37-235.57ZM1565,277.93c34.29,13,67.45,29,100.17,45.58q7.54,29.7,15.43,59.34c-7.21,10.85-14.2,21.76-21.25,32.66,6.32,12,14,23.38,19.18,36,.5,20.86-2,41.61-2.29,62.47-9.85-4.7-19.69-9.23-29.48-13.87.73-19,7.67-40.16-5.2-56.82-7.78-22.21-32.71-25.95-51.34-35.18-2,21.14-1.28,42.34-2.29,63.47-8,15-21,26.68-31.09,40.33,2.29-78,6.32-156,8.16-234m27.85,48.77c-.11,13-1.06,25.89-1.39,38.87,15.94,10.23,34.39,16.05,51.67,23.88,2-7.32,8.39-14.32,5.54-22.26-3.75-27-36.13-29.47-55.82-40.49Zm-1182-31c10.51-4.75,21.09-9.45,31.82-13.76,1.4,66.16,1.4,132.33,3.75,198.49Q431.51,486.6,416.67,493c.28-40.38.73-80.87-3.52-121.08C406.94,409.53,394,445.6,385,482.57q-9.31,4.62-18.57,9.34c-11.24-25.45-20.63-51.73-33.16-76.57-2.24,39.32,4.08,78.8-.17,118-7.6,15.6-16.94,30.37-25.28,45.58-2.29-74.78-3.36-149.66-3.86-224.44,8.11-8.61,20.36-12.52,30.37-18.79q20.88,45.81,39.26,92.73c14.37-43.68,24.27-88.7,37.3-132.77Zm1296.77,49.27c10.12,5.26,20.25,10.46,30.54,15.55-.45,59.28-5.42,118.45-5.65,177.73a313.23,313.23,0,0,1-33.72,25.9c2.4-73,4.81-146.19,8.83-219.18ZM189,415.18c21.3-16,44.46-29.42,67.17-43.29,8.44,14.37,24.61,26.68,22.31,45.08-1,44.51,2,88.92,1.45,133.44-9.28,5.2-18.62,10.29-27.84,15.54-.34-17.83-1.57-35.62-2-53.41-17.84,10.41-35.79,20.64-53.13,31.88,1,17.23,3.3,34.63.95,51.79-7.27,17.45-17.78,33.33-27.23,49.61.28-57.78-2.24-115.55-2.41-173.21,5.2-19.57,11.63-39.37,20.75-57.43m6.43,39.2c.67,15.49,1.74,30.93,2.07,46.47,17.28-11.41,35.12-22,53-32.38-1.46-15.93-1.73-31.93-1.63-47.93-17.95,11.13-35.95,22.09-53.46,33.84Zm1570.82-80c38.87,17.17,76.51,37,114.2,56.6-12.53,5.87-24.44,15-38.2,16.72-16.44-7-32-15.82-48-23.71-1,12.08-1.68,24.21-1.85,36.41,25.78,10.23,50.34,23.32,76.17,33.56-13.87,8.1-27.9,15.94-42.22,23.15-11.57-5.65-23.38-10.79-35.12-15.88-.62,9.11-1.06,18.28-1.46,27.4,26.29,11.3,52.63,22.82,78,36.07-12.41,6.21-24.83,12.36-37.25,18.63C1807,572.44,1783,562.65,1758.91,553c3.35-59.51,4.75-119.07,7.33-178.58Zm137.69,65.89c30.2,16.1,60.29,32.66,89.2,51.06-9.84,5.93-19.52,12-29.14,18.17-15.77-8.61-31-18.17-47.48-25.5-2.24,9.84-.89,19.86,1.85,29.47,21.7,9.28,43.12,19.19,64.09,30,3.52,18,7.55,36,11.41,54-7.55,15.1-15,30.14-22.7,45.19-29.64-15.27-60.07-28.92-90.1-43.29,10.57-7.11,21.19-14.15,32.1-20.81,17.17,8.11,34.23,16.56,51.34,24.84,3.29-9.57,1-19.19-1.4-28.52-21.42-10.91-43.45-20.64-65.44-30.26-4.3-16.28-9.56-32.38-12.46-49,4.81-18.91,13-36.74,18.73-55.31ZM68,494.42c24.89-20.41,53.53-36.06,81-52.79-10,20.92-8.45,51.68-32,63-14,8.28-27.74,17.17-41.5,25.89-.11,32.39,2.86,64.71,1,97.09,14.49-9.06,29.92-16.61,44-26.28a190,190,0,0,0-.38-28.13c-4,2.06-12.09,6.32-16.17,8.44-6-9.39-12-18.73-18-28.07,20-12.42,40.05-24.89,60.86-36-.51,24.33.95,48.71-.56,73-4,17.12-11.36,33.22-16.78,50-20,10.56-39.43,22.2-59.28,33.1-7.05-12.53-19.47-23.6-18.9-39q-2.19-44.57-.34-89.2A353.77,353.77,0,0,1,68,494.42ZM980.3,504.83c10.29,8.94,18.12,20.19,26.62,30.76,58.61,71.13,131,132.1,214.87,171.24,26.17,12.42,53.91,22.65,83,24.78,23.16,2,44-13,67.22-10.62,19.46,1.78,38.92,9.39,53.75,22.37,7.88,21.14,9.22,45.91,26.28,62.58,12.75,15.15,34,14.82,51.85,11.46,4.25,12.08,10.12,26.79,24.77,28.7,13.71.33,26.12-7.61,39.27-11,8.61,12,14.31,27.79,29.08,33.78,28.86,13.87,51.51,39,64.65,68-16.89-18.73-34.23-37.8-57.72-48.37-.67,36.41,4.31,79.08-23,107.88-1-23.1-3.36-46.42-13.48-67.5-20.81,17-40.44,38.14-68,43.34,8.39-11.41,20.58-21,24.39-35.23,2.13-11-10.8-12.87-18.46-14.55-32.49-5-60.18,15.72-85.84,32.28-4-11.47-8.12-22.88-12-34.34-16.56,5.2-35.74,8.72-47,23.32-6.88,12.75,6.43,23.21,16.44,28.41,17.12,9.73,37.37,2.57,55.77,6.54,11.91,2.8,19.18,13.54,27,22.15q.67-13.17,1.85-26.23c21.31,23.61,39.09,50.17,55.2,77.58,20.75-9.85,31.6-30.38,29.92-53.19,8.39,15,8.78,32.32,8.22,49.1q7.65-9.33,16.06-18c2.68,25.17,3.18,52.19-8.56,75.34-9.4,17.95-27,29.86-45.7,36.52,4-14.76,12.7-38.7-7.66-45.13-35.46-6.88-70.08,8.33-105.2,11.12,19.86-11.12,42.78-21.14,54.64-41.77-.84-2.52-2.63-7.61-3.47-10.13-18.73-11.52-40.88-16.38-61.18-24.6-11.86-5.82-22.93,2.73-33.72,6.71-20.3-11.3-45.92-13.14-66.22-.84-50.67,35-136.29-15.33-123.16-77.79,9-34,45.64-45.81,73.94-59.28-25.9-5.66-56.26-1-74.55,19.63-15,15.65-20.58,37.24-24.33,57.94-96.75-28.7-200.77-33.73-299.88-15-96.63,17.95-188.58,65.89-254,139.88-66.94,74.77-107.71,170.12-128,267.66-24.44,116.67-6.1,241.11,49,346.64,14,29.25,32.67,55.82,49.67,83.39-81.82-66.83-137.69-160.35-175.28-258-12.08,14-11.12,33.16-13.86,50.33-26.57-40.66-22.43-92-15.05-137.69,15.94-83.22,44.07-163.65,78.41-240.94-28.63,16.67-49.61,42.73-73.15,65.33-.95-83.44,47.54-155.14,97.31-217.84,30.53-38.59,66.72-72.09,101.84-106.43-28.52,7.72-55.08,20.81-82.71,31C537.69,926.64,613,886.66,690.49,859.48A802.9,802.9,0,0,1,925.33,817.7c-42.79-9.79-86.41-17.57-130.37-19l-7.83,5.48c-.16-3.13-.56-6.88,3.41-7.66,81.09-20.08,166.33-24.89,244.35-56.6a202.47,202.47,0,0,0,52.51-31.2c33.39,22.59,68.23,50.22,110.63,49.88-66-53-132.33-108.16-179.25-179.52-15.83-23-31-47.11-38.48-74.29m369.45,269.79c17.23,23.1,38.42,49.89,71.08,45.75-4.3-11.69-5.87-26-16.38-34C1386.32,781.89,1367.59,780.1,1349.75,774.62Z" transform="translate(0 -0.21)"/><path class="cls-1" d="M911.12,607.9c54.13,28.75,103.52,66.16,159.67,91.55-13.6,11-30.82,30.93-49.67,18.35C977.33,689.44,943.33,648.33,911.12,607.9ZM269.58,855.6c43.17-15.61,96.3,19.12,97.59,65.33-4.42.44-13.25,1.28-17.67,1.73C347.37,957,362.92,989.77,381,1018c2.07-31-3.41-64,12.19-92.55a61.59,61.59,0,0,1,29.36,8.94c12.14-7.44,9.46-23.76,2.24-33.83-8.22-11.07-18.57-20.25-27-31,21.64,13.14,43.74,28,57.66,49.72,8.22,14.6,10.24,36.52-3,48.93-8.73,9.57-27.46-.44-32.94,13.37-9.9,19.8-6.33,43.46,2.18,63.14,21.3-4.25,36.29-20.74,55.7-29-37.8,39-73.77,80.86-95,131.53-.33-15.09,6.94-33.16-3.63-46.14-20.24-18.62-50.67-17.22-72.76-32.66-12.92-9.39-20.19-24-30.87-35.46-8.78-8.78-26-5.14-31.88-16.94-2.68-19.63-.72-43.35-17.17-57.72-17.44-14.09-41.6-11.35-62.58-13.25,34.56-18.46,80.14-8.79,105.81,20.24,12.14,13.59,10.63,35.4,25.95,46.7,15.89,11.07,32.61,22.26,51.85,26.62,4.53-27.23-20.92-43.62-29.14-66.95-9.68-24-14.32-53.3-.72-76.78,2.85-7.66,11.63-17.45,2.12-23.94-13.76-11.74-33.28-11-49.89-15.26Zm507.87,158.72a157.34,157.34,0,0,1,17-5.48c-41.32,37.86-71,85.68-103.85,130.59-11.13,16.44-25.67,34-22,55.37.39,6.59,3.08,18.79,12.36,13.92,20.41-10.68,31.82-31.82,46.25-48.88,9.84,31.83,39.88,50.67,69.69,61.13,50.89,18.9,106,12.19,158.49,5.65,100.56-14.09,203.69-39.49,287.07-100.11,23-15.38,38.65-38.82,60.3-55.59-5.49,25.5-24,45.13-41.22,63.59-59.17,57.72-137.58,91-216.44,112.19-75.72,19.8-154,28.24-232.1,30.76-18.17,1.85-38.58,2.73-53.3,14.93-9.95,7.83-.72,20.3,6.94,25.73,27.46,19.74,58.55,34.34,90.66,45,79.86,27.57,166.88,15.43,246.24-7.55,54.59-15.49,105.2-41.44,155.82-66.38-61.46,56.93-142.23,89.2-223.71,104.36-110.51,18.73-225.17,2.85-329.8-35.63-11.35-3.52-28.86-6.6-35.24,6.49-8.38,20.3,9.4,37.91,17.34,55.14,31.38,61.64,72.65,121.7,133.27,157.61,23.33,14.59,49.78,22.7,76.07,30-44,1.46-85.24-18-122.65-39-75.56-44.24-125.22-121.08-156.37-201,5.7,105.86,72.43,197.25,149.38,265.2.39,12-14,12.19-22.54,15.15C710,1656.53,668.12,1656,640.82,1683c-23.88,40.54-24,91.27-50.11,130.92-47.14-82-77-173.59-90.88-267.05-17.39-121.31,7.21-248.65,72.54-352.73,48.88-78.3,121.64-140.77,205.08-179.81Z" transform="translate(0 -0.21)"/><path class="cls-1" d="M1263.46,1214.76c27.12-15,50.22-35.74,75.38-53.58-6.37,16.67-21.3,27.47-33.89,39.26-111.74,100.56-266.32,141.39-414.13,138.37-27.41-2-58.67-2.35-80.48-21.42-4.81-14.32,14.76-16.06,24.21-15.44,146.58,6.66,300.5-11.18,428.91-87.19Zm-54.31,153.13c51.73-4.42,105.81,3.52,152.51,27,45,22.54,79.19,63.93,94.63,111.69-27.85-24.21-69.86-33.22-105.2-23.88-1.68,11.3,1.79,22,7.32,31.87-47.87,5.71-97.59-12.52-126.45-51.95,21,9.5,42.9,22.43,67,17.72,19-3.85,39.48-12,49.94-29.36,6.93-13.25-6.38-24.88-15.83-32.1-37.35-25.33-81.42-37.41-123.87-51Zm-499.82,14.43c9.84,1.18,21.65.5,28.3,9.51,43.79,56,113.81,83.67,181.88,95.86,51.9,10.62,105,11.79,157.82,10.29-86.86,22.2-182,18-264.86-17.63-37.14-15.93-71.87-39.81-95.7-72.87C711.12,1400.33,711.18,1390.77,709.33,1382.32Z" transform="translate(0 -0.21)"/><path class="cls-1" d="M1206.52,1499.43c-15.89-25.67-21.31-58.38-13.64-87.58,5.2,33.45,17.22,68.06,44.63,89.82,33.83,27.63,80.14,33.44,122.42,30.09,59.73-5.88,119.68-16.83,179.91-11.86,28,2.85,51.51,21.92,64.65,46.14,11.8,22.21,23.83,45,29.87,69.52,4.92,29.69-20.41,51.34-26.62,78.58-11.63,46.25-11.52,95.46-30.32,139.87-11,26.17-35.46,43-50.16,66.66-27.91,44.08-41.17,95.25-51.85,145.75-5.08,23.66-14.76,48.6-36.46,61.75-39,24-86.86,25.67-127.4,46.19-39.21,18.12-70.07,48.88-104.3,74.33-26.85,20-63,20.41-93.8,10.17-25-8.5-52-13.59-78.07-6.43-23.49,2.4-45.47,18.73-69.41,12.53-30.47-9.28-33.21-48.49-60.12-62.25-27.35-13.76-58.61-13.92-88.14-19.29C804,2181.18,790,2174,783.82,2161c-8.05-18.84-7.21-40.6-17.33-58.6-24.39-38.15-77-45.92-99-86.19-11-19-7.94-41.78-.61-61.46,7.77-21.36,10-48.15-5.88-66.5-17.73-19.46-45.75-22.93-70.58-25,26.56-36.46,41.67-79.64,51-123.43,5.1-26,20-52.35,47.15-59.79,37-10.35,81.15-25.45,116.66-3.24,41.28,32.55,34.34,101.45-.72,136.13-24.67,19.41-62,25.78-90.38,10.9-17.28-9.34-19.18-30.81-16.44-48.15,12.13,8.27,21.08,22.15,36.46,24.89,12.19-3,30.09-9.85,29.58-24.84-7.71-21.64-34.33-36.8-56.31-26.51-24.39,11.64-49.44,31.88-53,60.35.62,31.93,34.23,49.28,62.64,50.11,46.69.22,87.36-28.07,120.07-58.78-6.32,90-.9,185.06,41.61,266.55,21.08,41.5,61.57,70.52,106.59,80.86,90.49,21.37,185.29,5.93,272.2-23.48,52.24-17.23,103-41.56,145.08-77.46,20.86-19,36.52-42.74,51.84-66.22,40.77-64.93,72.7-135.18,98.15-207.44,17.06-52.18,29.58-111.4,7.27-163.92-15.22-36.13-55.64-51.34-91.89-55.82-45.69-7.43-91.05,10.74-136.68,3.64-9.06,15.55-8.56,38.37,8.72,48,30.31,16.66,66.44,12.41,99.72,14.43-61.85,24.72-134.67,34.56-197,6.09-55.31-23.6-97.31-73.1-116-129.75,26.06,37.81,53.24,79.7,98.2,96.7,21.32,6.94,48.33,12.14,67.68-2.29,12.46-12.7-1.46-28.92-7.78-40.88-30.69-7.39-61.06-23-78.23-50.45Zm417.1,74.83c9.35-6.88,20.64-10.29,31.32-14.59-4.42,10.34-8.55,23.15-20.8,26.28Q1621.8,1587.12,1623.62,1574.26Zm-5.14,145.64c18.06-7,37.75-1.34,56.59-3.86-13.76,14.37-35,29.24-55.36,19.63Q1619.05,1727.78,1618.48,1719.9Z" transform="translate(0 -0.21)"/><path class="cls-1" d="M918.66,1775.76c25.56-19.79,59.45-24.21,90.88-25.61-23.37,7.89-51.62,13.59-62.13,39.15,9.23,12.53,32.77,4.53,37,20.52.62,33.73-26.56,57.94-36.68,88.15,27.69-19.07,59.06-36.7,76.73-66.39,4.81-9.17-9.45-12.08-13.53-17.5,14.54-23.55,43.9-31.94,70.13-31.33,20-.61,41.78,6,53.75,23.1-19.41-4.42-40.66-20-60.29-8.39-4.87,13.53-1.85,28.86-7.55,42.39-11.8,32.89-42.17,55-73.77,67.11-11.36,4.59-26.84,14.71-22.7,28.92,19.79,1.17,39.93,3.47,59.67.39,21.14-3.3,31.09-26.62,51.79-30.81,37.47-10.18,82.6,5.42,102,40-20-9.68-39.88-26.4-63.54-21.81-23.37,5.09-33.05,29.14-47,45.69-12.64,3.3-25-4.42-37.64-2.68-17,3.86-31.88,14.14-49.33,15.88-30.43,3.3-59-16.66-89.48-9.61-16.33,5.08-15.33,24.94-16.73,38.75-18.23-54.42-26-112.75-20.8-170,13.2,13.37,12.92,32.44,17,49.55,2.4,10.91,15.93,11.19,23.32,5.14,19.51-14.48,32-38.75,30.37-63.3-24.66-7.22-30.71-41.33-11.36-57.39ZM603.85,1897.63c15.88-13,46.81-3.47,47.71,18.63,2.07,15,1.4,34.62-14.66,41.83-34.61,18.85-80.42,27.07-98.71,66.33C542,1975.87,562,1925.43,603.85,1897.63Zm913.35,58.72c7-14.2,25.44-11.18,36.8-4.53,14.43,8.11,29.81,14.32,46.75,14.32-21,13-47.2,23.49-71.92,15.77C1518.26,1979,1509.48,1966.42,1517.2,1956.35ZM731.08,2097.12c18.91-6.6,39.72,10.68,35,30.71.62,15.33-12.36,24.38-25.28,28.86-29,12.13-63.64,20.58-79.75,50.44,2.57-45.3,28.92-89.76,70.07-110Zm564.76,120c-7.67-16.84,7.16-36.3,25.27-30.87,19.07,4.3,17.79,26.79,20.25,42,1.45,17.62,9,33.72,18.12,48.54-28.13-9.84-51.29-32.93-63.64-59.67Zm-441.49,2.91c9.79-12.19,26.46-17.62,41.72-14,18.85,10.24,22.87,42.78,3.47,54.64-26.84,20.87-65.88,33.33-75.11,70-2.69-38.58,5.09-79.91,29.92-110.56Zm200.66,45.8c21.42-14.31,51.4,13.26,36.7,35.46-19.47,25.4-52.8,40.38-60.8,74-6.37-37-3.35-81.09,24.1-109.45Z" transform="translate(0 -0.21)"/><path d="M996.13,2.27c17.83-3.3,35.95-1.9,54-.84l.22,4.08c6.72.62,13.54,1.34,20.3,2.18,37.08,10.35,74.78,18.46,112,28.3,25.83,8.28,52.12,14.88,78.07,22.82,5.71,1.85,11.42,3.64,17.17,5.37q8.28,2.79,16.61,5.37c22.54,6.88,44.63,15.27,67.11,22.37,5.37,2,10.79,4,16.22,6,5.7,2,11.41,3.86,17.17,5.82A156.62,156.62,0,0,0,1422.84,114a293.67,293.67,0,0,0,28.3,11.63c5.48,1.9,11,3.86,16.61,5.82,12.58,6.42,25.84,11.51,39.15,16.44a162.72,162.72,0,0,0,28,11.35c15.93,8.84,33.16,15.1,49.71,22.77,3.3,1.17,9.9,3.58,13.21,4.75l1.22,3c24.28,8.11,46,22,69.8,31,2.8,1.46,8.39,4.42,11.19,5.87s8.39,4.2,11.12,5.6q5.68,2.77,11.36,5.59a218.84,218.84,0,0,0,22.71,10.4c7.1,4.25,14.42,8.17,21.92,11.91l11.19,5.76,11.23,5c23.77,13.87,48.38,26.29,72.76,39.1,12.53,8.22,25.84,15.21,39.15,22.08q27.71,17.44,56.21,33.56c14.77,9.51,29.26,19.35,44.58,28,18.11,14.49,40.15,23.55,57.6,38.87,2.52,76.9.17,154-1.23,230.87-4.36,44.13-7.6,88.42-10.29,132.66q-3.93-1.92-7.83-3.92c-174.21-90.59-355.7-167.16-541.43-230.86C1353,517.92,1222.79,488.67,1092.6,461c-24.28-4.53-48.21-11.52-72.93-12.63-27,1-53.53,7-79.92,12.24-118.46,25.61-236.46,53.86-352.06,90.27-118.62,37.08-234.27,82.88-348.14,132.43-75.33,35.4-151.9,68.62-224,110.4a61,61,0,0,0-3.86-18c-1.73-29.76-.45-60-5.59-89.38C2.92,654.77,7.68,621.72.34,591c-.38-39.65-.55-79.3.12-118.9,5.7-12.36,2.46-26.34,3.07-39.49,30.76-20.3,61.19-41.27,92.23-61.29,51.23-31.43,103.8-60.68,156.7-89.26,15-7,29.59-15.1,44.46-22.54,2.85-1.4,8.51-4.19,11.31-5.59C326.29,243.59,345.41,235.26,364,226c10.06-5.08,20-10.57,30.87-13.92l1.23-4.7c2.46.28,7.38.9,9.79,1.18l1.23-5.15c21.36-5.26,39.42-18.9,60.57-24.89l1.06-3.13c18.12-5,35.07-13.54,51.85-21.81a124.73,124.73,0,0,0,28.13-11.47A153.21,153.21,0,0,0,576.67,131a186.61,186.61,0,0,0,28-10.85c20.52-7.38,41.27-14.26,61.4-22.65q8.34-2.7,16.61-5.54c27.75-10,55.87-18.85,84-28q8.53-2.45,17-5.09c25.95-7.94,52.3-14.76,78.24-22.7,7.44-1.63,15-3.14,22.32-5.54,14.87-4,30-7,44.91-11.19a194.27,194.27,0,0,0,22.37-5.54c7.32-1.73,14.76-3.4,22.15-5.37S988.8,5,996.13,2.27M909.38,91.36c-21.86,23.43-46.58,44.35-67.11,68.84-.06,54.43-2.18,109.4,1,163.54,21.7,22,44.9,42.67,66.16,65.27q102.67.08,205.41,0c7.78,1.73,12.37-5.49,17.45-9.8,18.57-19.07,37.59-37.75,56.32-56.7-.11-37.48,0-74.94,0-112.42-71.53.06-143.06-.05-214.54.06q30.62,30.78,61.46,61.46h62.2v50.33h-165V158.36c67-.11,134,.22,201-.16,22.27-21.76,42.9-45.09,65-66.95-96.47.06-192.95-.17-289.42.11M691.27,196.28c-8,18.07-17.17,35.73-23.49,54.47-2.57,37.14,1,74.44,1,111.63,5.48,15.33,17.95,27.24,26.29,41.16,26.45-8.27,53-16.27,79.75-23.6,7.6-17.67,17.16-34.51,23.15-52.79,1.79-26.56.11-53.19-1.18-79.75-26.84,7.49-53.63,15.15-80.14,23.49,7.44,12.19,15.33,24.21,23.27,36.18l23.71-6c-.11,11.24-.05,22.54-.05,33.84-20.2,5.75-40.27,11.69-60.24,18,0-37.41-1.79-74.77-1.67-112.18,24.82-7.39,49.54-15,74.33-22.6,8.16-18.29,16.44-36.52,24.66-54.75-36.87,9.56-73.05,21.47-109.34,32.94m570.39-14.43c-10,17.22-20.75,34-31.43,50.73,9,21.25,18.35,42.39,27.58,63.53,25.89,6.76,51.56,14.43,77.06,22.71,3,7.77,6.1,15.6,9.12,23.49-1.9,3.29-5.7,9.95-7.6,13.25-25.51-7.38-51.29-13.76-77-20.13-9.11,11.68-18.18,23.37-27.07,35.17,43.51,10.63,87.31,20.36,130.37,32.72,7.1-16.05,15.38-31.66,21.42-48.15-3.86-23.66-13.65-45.92-20.19-68.91-26.68-8.61-53.58-16.16-80.37-24.32-3.42-6.94-6.77-13.87-10.12-20.75q5.79-8.69,11.79-17.23c25.12,6.21,49.72,14.15,74.78,20.63,10.68-8.77,21.53-17.33,31.93-26.45-43.17-12.8-86.23-26.56-130.25-36.29m-649,34.73c-1,39.26,2.63,78.47,1.07,117.78-23-31.37-44.63-63.75-67.84-95q-10.87,4.08-21.71,8.28c2.58,79.13,3,158.32,4.65,237.52,10.23-15,19.24-30.82,29.36-46-2.24-38.64-1.06-77.34-2.18-116,21.47,32.77,45.08,64.09,66.72,96.75,7.83-2,15.77-4.14,23.77-6.21-3.86-68.51-1.29-137.19-5.1-205.64-9.55,2.85-19.23,5.65-28.74,8.5m797.29,6.6c-3.29,64.6-7.71,129.19-11,193.79,26.34,7.77,52.57,15.82,78.57,24.55,20.08,10.07,34.29-14.43,49.94-23-30.08-10-59.62-21.81-90.15-30.37.28-11.13,1-22.21,1.79-33.34,17.34,5.37,34,13,51.39,18,14.83-5.65,26-18.29,39.21-27-29.2-11.85-58.78-22.65-88.42-33.16,1.12-13.59,1.9-27.24,3.13-40.82,22.15,7.37,44,15.6,66,23.32Q1527,283,1543.64,270.88c-44-17.61-88.64-33.27-133.72-47.7M468.45,270.1q3.62,117.7,4.37,235.57c10.46-14.83,20.29-30.09,30.59-45,.67-67.67-2.8-135.29-2.68-203q-16.2,6.09-32.28,12.47M1565,277.93c-1.84,78-5.87,156-8.16,234,10.12-13.65,23.09-25.28,31.09-40.33,1-21.14.34-42.33,2.29-63.47,18.62,9.23,43.57,13,51.34,35.18,12.86,16.66,5.93,37.8,5.2,56.82,9.79,4.64,19.63,9.17,29.48,13.87.28-20.86,2.79-41.61,2.29-62.47-5.15-12.64-12.86-24-19.18-36,7-10.9,14-21.81,21.25-32.66q-7.87-29.62-15.43-59.34c-32.72-16.55-65.88-32.6-100.17-45.58M410.85,295.66c-13,44.08-22.93,89.09-37.3,132.77q-18.46-46.81-39.26-92.73c-10,6.27-22.26,10.18-30.37,18.79.5,74.78,1.57,149.66,3.86,224.44,8.33-15.21,17.67-30,25.28-45.58,4.25-39.21-2.07-78.69.16-118,12.54,24.84,21.93,51.12,33.17,76.57q9.25-4.73,18.57-9.34c9.06-37,22-73,28.18-110.68,4.25,40.21,3.81,80.7,3.53,121.08q14.85-6.37,29.75-12.58c-2.35-66.16-2.35-132.33-3.75-198.49-10.73,4.31-21.31,9-31.82,13.76m1296.77,49.27c-4,73-6.43,146.14-8.83,219.18a312.25,312.25,0,0,0,33.72-25.9c.23-59.28,5.2-118.45,5.65-177.73-10.29-5.09-20.42-10.29-30.54-15.55M189,415.18c-9.12,18.06-15.55,37.86-20.75,57.44.17,57.65,2.68,115.42,2.4,173.2,9.46-16.28,20-32.16,27.24-49.61,2.35-17.16.05-34.56-.95-51.78,17.34-11.24,35.29-21.48,53.13-31.88.45,17.78,1.67,35.57,2,53.4,9.22-5.25,18.56-10.34,27.84-15.54.56-44.52-2.45-88.93-1.45-133.44,2.29-18.4-13.87-30.71-22.32-45.08-22.7,13.87-45.86,27.29-67.16,43.29M1766.24,374.4c-2.58,59.51-4,119.07-7.33,178.58,24,9.67,48,19.46,71.59,30.37,12.42-6.27,24.83-12.42,37.25-18.63-25.4-13.25-51.74-24.77-78-36.07.39-9.12.84-18.29,1.46-27.4,11.74,5.09,23.54,10.23,35.11,15.88,14.32-7.21,28.36-15,42.23-23.15-25.84-10.24-50.39-23.33-76.17-33.56.16-12.19.89-24.33,1.84-36.41,16,7.88,31.6,16.67,48,23.71,13.76-1.73,25.68-10.85,38.2-16.72-37.69-19.63-75.33-39.43-114.2-56.6m137.69,65.89c-5.76,18.57-13.92,36.4-18.74,55.31,2.91,16.61,8.17,32.72,12.47,49,22,9.62,44,19.35,65.44,30.26,2.34,9.34,4.69,19,1.39,28.52-17.11-8.28-34.16-16.72-51.33-24.84-10.91,6.66-21.54,13.71-32.11,20.81,30,14.37,60.46,28,90.1,43.29,7.67-15,15.16-30.09,22.71-45.19-3.86-18-7.89-36-11.41-54-21-10.79-42.4-20.69-64.1-30-2.73-9.61-4.08-19.63-1.85-29.46,16.45,7.32,31.71,16.88,47.49,25.49,9.62-6.15,19.29-12.24,29.14-18.17-28.91-18.4-59-35-89.2-51.06M68,494.42a355,355,0,0,0-16.95,51.07q-1.84,44.58.34,89.2c-.57,15.38,11.85,26.46,18.9,39,19.85-10.9,39.26-22.54,59.28-33.1,5.42-16.73,12.81-32.83,16.78-50,1.51-24.32,0-48.71.56-73-20.81,11.13-40.83,23.6-60.86,36,5.93,9.34,12,18.68,18,28.07,4.08-2.12,12.14-6.37,16.17-8.44a190,190,0,0,1,.38,28.13c-14.09,9.67-29.52,17.22-44,26.28,1.85-32.38-1.12-64.7-1-97.09,13.76-8.72,27.46-17.61,41.5-25.89,23.55-11.35,22-42.11,32-63C121.54,458.35,92.91,474,68,494.42Z" transform="translate(0 -0.21)"/><path d="M1592.86,326.7c19.69,11,52.08,13.53,55.82,40.49,2.85,7.95-3.52,14.94-5.54,22.26-17.28-7.83-35.73-13.65-51.67-23.88.33-13,1.28-25.9,1.39-38.87ZM195.42,454.38c17.51-11.75,35.51-22.71,53.47-33.84-.11,16,.16,32,1.62,47.93-17.9,10.41-35.74,21-53,32.38-.34-15.54-1.4-31-2.07-46.47Z" transform="translate(0 -0.21)"/><path class="cls-2" d="M939.75,460.59c26.4-5.26,52.91-11.24,79.92-12.25,24.72,1.11,48.66,8.11,72.93,12.64,130.19,27.68,260.39,56.93,386.51,100.16,185.73,63.7,367.21,140.27,541.43,230.87,6,5.7,7,14.26,7.6,22.15-8.22,17.5-4.64,37.3-6.55,56-6.26,14.21-4.19,30-5.64,45.13-6.1,27.41-9.17,55.7-11.24,83.78-4.7,10.68-4.76,22.43-5.76,33.89-7.78,42.73-15.72,85.51-22.55,128.41-6.31,26-11.85,52.18-16.83,78.46-11.13,44.8-21.87,89.71-33.5,134.4-4.47,12.86-7.94,26-11.19,39.15-7.54,24.21-15.32,48.43-22.59,72.7-1.78,5.59-3.58,11.24-5.2,16.89-9.68,25.89-18.57,52.07-27.91,78.08q-3.09,8.23-6.09,16.49a297.27,297.27,0,0,0-10.91,28.36,191.22,191.22,0,0,0-11.24,27.85c-7.77,16.67-15,33.67-22,50.67-77.85,170.8-175.84,334.56-305.7,471a1266.17,1266.17,0,0,1-354.46,266.9c-2.86,1.33-8.51,4.07-11.3,5.47s-8.28,4.31-11.07,5.77c-20.75,8.78-40.77,19.13-61.52,27.84q-14.25,5-28.08,11-8.77,3.59-17.45,7.38c-15.16-6.15-30.2-12.53-45.52-18.12-172.7-72.65-328.57-184.61-453.23-324.43C422,2048.36,342,1923.92,274.78,1793.61q-5.05-11.5-11.19-22.48l-5.37-11.19-5.81-11.19c-15.27-33.38-31-66.66-44.63-100.77q-5-14.13-11.18-27.8c-8-20.3-14.43-41.16-22.71-61.3-20.36-59.17-38.7-119-55.59-179.13-7.33-28.3-14.82-56.55-22.09-84.9-6-23.83-10.36-48.1-17-71.76-9.84-46.64-17.78-93.79-28.24-140.15-.84-11.3-1.51-22.65-5.48-33.33-3-24.39-4.75-49.39-11.52-73-1.17-13.25.39-27.18-5.48-39.54-1.29-16.61,0-33.61-5.65-49.55-1.85-16.89.62-34.51-5.65-50.72-.72-14.38-1.34-28.75-1.62-43.12,72.08-41.79,148.65-75,224-110.4,113.87-49.56,229.53-95.36,348.15-132.44,115.6-36.41,233.6-64.65,352.06-90.26m40.55,44.24c7.5,27.18,22.65,51.28,38.48,74.27C1065.7,650.46,1132,705.66,1198,758.62c-42.39.34-77.23-27.29-110.62-49.89a203,203,0,0,1-52.52,31.21c-78,31.71-163.25,36.52-244.35,56.6-4,.78-3.57,4.52-3.4,7.66l7.82-5.49c44,1.4,87.59,9.18,130.37,19a803.11,803.11,0,0,0-234.83,41.78C613,886.63,537.69,926.62,480.14,986.07c27.63-10.24,54.2-23.32,82.72-31-35.12,34.33-71.31,67.84-101.85,106.43-49.77,62.69-98.26,134.39-97.31,217.84,23.55-22.6,44.52-48.66,73.16-65.33-34.34,77.29-62.47,157.71-78.42,240.93-7.38,45.7-11.51,97,15.05,137.69,2.74-17.16,1.78-36.35,13.87-50.33,37.58,97.65,93.45,191.16,175.27,258-17-27.57-35.62-54.13-49.66-83.38-55.14-105.54-73.49-230-49.05-346.64,20.3-97.54,61.08-192.89,128-267.67,65.43-74,157.38-121.92,254-139.87,99.1-18.68,203.12-13.65,299.87,15,3.75-20.69,9.34-42.28,24.34-57.94,18.28-20.58,48.65-25.28,74.54-19.63-28.3,13.48-64.93,25.33-73.93,59.28-13.14,62.47,72.48,112.75,123.15,77.8,20.3-12.31,45.92-10.46,66.22.83,10.79-4,21.87-12.53,33.73-6.71,20.3,8.22,42.45,13.09,61.18,24.61.84,2.51,2.62,7.61,3.46,10.12-11.85,20.64-34.78,30.65-54.63,41.78,35.11-2.8,69.74-18,105.19-11.13,20.36,6.43,11.69,30.37,7.67,45.13,18.73-6.65,36.3-18.57,45.69-36.52,11.74-23.15,11.24-50.16,8.56-75.33q-8.4,8.67-16,18c.55-16.77.16-34-8.23-49.1,1.68,22.82-9.17,43.34-29.92,53.19-16.1-27.4-33.89-54-55.2-77.57q-1.17,13.08-1.85,26.23c-7.77-8.62-15-19.36-27-22.15-18.4-4-38.65,3.19-55.76-6.54-10-5.21-23.33-15.66-16.44-28.42,11.23-14.59,30.42-18.12,47-23.32,3.92,11.46,8,22.87,12,34.34,25.67-16.56,53.35-37.3,85.84-32.27,7.66,1.67,20.59,3.58,18.46,14.54-3.8,14.21-16,23.83-24.38,35.24,27.56-5.21,47.2-26.35,68-43.35,10.12,21.08,12.46,44.41,13.47,67.5,27.3-28.79,22.31-71.47,23-107.88,23.49,10.57,40.83,29.65,57.73,48.38-13.14-29-35.8-54.14-64.66-68-14.76-6-20.47-21.75-29.08-33.78-13.14,3.41-25.56,11.36-39.26,11-14.66-1.9-20.53-16.61-24.78-28.69-17.84,3.36-39.1,3.69-51.85-11.47-17-16.66-18.4-41.44-26.28-62.58-14.82-13-34.28-20.58-53.74-22.37-23.27-2.41-44.07,12.59-67.23,10.63-29.14-2.13-56.88-12.37-83-24.78-83.89-39.15-156.25-100.11-214.87-171.25-8.49-10.54-16.32-21.79-26.61-30.73M911.12,607.9c32.21,40.44,66.21,81.54,110,109.9,18.85,12.58,36.08-7.39,49.67-18.35-56.15-25.39-105.54-62.8-159.67-91.55M269.58,855.6c16.61,4.25,36.13,3.52,49.89,15.27,9.5,6.49.72,16.28-2.13,23.94-13.59,23.48-8.95,52.73.73,76.78,8.22,23.32,33.66,39.71,29.14,66.94-19.25-4.35-36-15.54-51.85-26.62-15.32-11.29-13.81-33.1-25.95-46.69-25.67-29-71.25-38.7-105.81-20.25,21,1.9,45.13-.84,62.58,13.26,16.44,14.37,14.49,38.08,17.17,57.71,5.87,11.8,23.09,8.17,31.88,17,10.68,11.41,17.95,26.06,30.87,35.46,22.09,15.44,52.51,14,72.76,32.66,10.57,13,3.3,31,3.63,46.14,21.2-50.67,57.16-92.56,95-131.54-19.41,8.28-34.4,24.78-55.71,29-8.5-19.69-12.08-43.34-2.18-63.14,5.49-13.82,24.22-3.81,32.94-13.37,13.21-12.42,11.19-34.34,3-48.94-13.93-21.7-36-36.58-57.66-49.72,8.44,10.8,18.79,20,27,31,7.21,10.07,9.9,26.4-2.24,33.84a61.49,61.49,0,0,0-29.36-9c-15.6,28.52-10.12,61.52-12.19,92.56-18.13-28.19-33.67-61-31.54-95.3,4.41-.45,13.25-1.28,17.67-1.73-1.29-46.21-54.42-80.93-97.59-65.33m507.87,158.72c-83.44,39-156.2,101.51-205.08,179.8-65.32,104.09-89.93,231.43-72.54,352.74,13.93,93.45,43.74,185,90.88,267.05,26.12-39.65,26.22-90.38,50.11-130.93,27.29-27,69.18-26.45,104.36-35.57,8.5-3,22.93-3.13,22.54-15.15-77-68-143.68-159.34-149.39-265.21,31.16,80,80.82,156.82,156.38,201.06,37.41,21.09,78.63,40.49,122.65,39-26.29-7.33-52.74-15.44-76.07-30-60.62-35.9-101.9-96-133.27-157.6-7.95-17.23-25.73-34.84-17.34-55.14,6.37-13.09,23.88-10,35.23-6.49,104.64,38.48,219.29,54.36,329.81,35.62,81.48-15.15,162.24-47.42,223.71-104.35-50.62,24.94-101.23,50.89-155.82,66.38-79.36,23-166.38,35.12-246.25,7.55-32.1-10.62-63.19-25.22-90.65-45-7.67-5.42-16.89-17.89-6.94-25.72,14.71-12.2,35.12-13.09,53.3-14.93,78.08-2.52,156.37-11,232.1-30.76,78.85-21.15,157.26-54.48,216.44-112.19,17.17-18.46,35.73-38.09,41.21-63.59-21.64,16.77-37.3,40.21-60.29,55.59-83.39,60.62-186.51,86-287.07,100.11-52.52,6.54-107.6,13.25-158.5-5.65-29.81-10.46-59.84-29.3-69.68-61.13-14.43,17.06-25.84,38.2-46.25,48.88-9.29,4.87-12-7.33-12.37-13.93-3.68-21.42,10.85-38.92,22-55.36,32.82-44.91,62.52-92.73,103.85-130.59a157.34,157.34,0,0,0-17,5.48m486,200.44c-128.41,76-282.33,93.85-428.91,87.2-9.45-.62-29,1.11-24.21,15.43,21.81,19.07,53.07,19.46,80.48,21.42,147.81,3,302.39-37.8,414.13-138.37,12.59-11.79,27.52-22.59,33.89-39.25-25.16,17.83-48.26,38.58-75.38,53.57m-54.31,153.13c42.45,13.59,86.52,25.67,123.87,51,9.46,7.21,22.77,18.85,15.83,32.1-10.46,17.33-30.92,25.5-49.94,29.36-24.05,4.7-46-8.22-66.94-17.73,28.86,39.44,78.57,57.66,126.44,52-5.53-9.84-9-20.58-7.32-31.88,35.35-9.34,77.35-.34,105.2,23.88-15.43-47.76-49.66-89.15-94.63-111.68-46.7-23.5-100.78-31.44-152.51-27m-499.82,14.43c1.85,8.45,1.79,18,7.44,25.17,23.83,33,58.56,56.93,95.69,72.87,82.88,35.57,178,39.82,264.87,17.62-52.79,1.51-105.92.34-157.82-10.29-68.07-12.19-138.09-39.88-181.88-95.86-6.66-9-18.46-8.33-28.3-9.51m497.19,117.11c17.17,27.41,47.54,43.06,78.24,50.45,6.32,12,20.25,28.19,7.78,40.88-19.35,14.43-46.36,9.23-67.67,2.29-45-17-72.15-58.89-98.21-96.7,18.68,56.66,60.68,106.16,116,129.75,62.35,28.47,135.17,18.63,197-6.09-33.28-2-69.4,2.24-99.71-14.43-17.28-9.61-17.79-32.43-8.73-48,45.64,7.1,91-11.07,136.69-3.63,36.24,4.47,76.67,19.69,91.89,55.81,22.31,52.52,9.78,111.74-7.28,163.93-25.45,72.25-57.38,142.5-98.15,207.43-15.33,23.48-31,47.25-51.84,66.22-42.11,35.91-92.84,60.23-145.07,77.46-86.92,29.41-181.71,44.85-272.2,23.49-45-10.35-85.51-39.38-106.59-80.87-42.51-81.49-47.94-176.51-41.61-266.55-32.72,30.71-73.38,59-120.08,58.78-28.41-.83-62-18.18-62.64-50.11,3.58-28.47,28.63-48.71,53-60.34,22-10.29,48.6,4.86,56.32,26.51.5,15-17.39,21.81-29.59,24.83-15.38-2.74-24.32-16.61-36.46-24.89-2.74,17.34-.84,38.82,16.44,48.15,28.36,14.88,65.71,8.51,90.38-10.9,35.07-34.67,42-103.58.73-136.13-35.51-22.2-79.64-7.1-116.66,3.24-27.13,7.44-42.07,33.84-47.15,59.79-9.34,43.79-24.44,87-51,123.43,24.83,2.07,52.86,5.54,70.58,25,15.89,18.35,13.65,45.13,5.88,66.5-7.33,19.69-10.35,42.45.61,61.46,22.1,40.27,74.67,48,99,86.19,10.12,18,9.28,39.76,17.34,58.6,6.15,13,20.18,20.2,33.89,22.44,29.53,5.36,60.79,5.53,88.13,19.29,26.91,13.75,29.65,53,60.13,62.24,23.93,6.21,45.91-10.12,69.4-12.53,26.06-7.16,53-2.07,78.08,6.43,30.76,10.24,66.94,9.79,93.79-10.17,34.23-25.45,65.1-56.21,104.3-74.33,40.55-20.52,88.42-22.14,127.4-46.19,21.7-13.15,31.38-38.09,36.46-61.74,10.69-50.51,23.94-101.68,51.85-145.75,14.71-23.72,39.21-40.49,50.17-66.67,18.79-44.4,18.67-93.62,30.31-139.87,6.21-27.24,31.55-48.88,26.62-78.58-6-24.55-18.06-47.31-29.86-69.52-13.14-24.21-36.63-43.29-64.65-46.14-60.24-5-120.19,6-179.92,11.86-42.28,3.36-88.58-2.46-122.42-30.09-27.4-21.75-39.43-56.37-44.63-89.82-7.68,29.2-2.25,61.91,13.63,87.58m417.1,74.83q-1.84,12.84,10.52,11.69c12.25-3.13,16.38-15.94,20.8-26.28-10.68,4.3-22,7.71-31.32,14.59m-5.14,145.64c.28,3.91.89,11.8,1.23,15.77,20.41,9.61,41.6-5.26,55.36-19.63-18.84,2.52-38.53-3.13-56.59,3.86m-699.82,55.86c-19.35,16.06-13.31,50.18,11.36,57.39,1.67,24.55-10.85,48.82-30.37,63.3-7.38,6-20.92,5.77-23.32-5.14-4-17.11-3.75-36.18-17-49.55-5.2,57.21,2.57,115.54,20.8,170,1.4-13.81.4-33.67,16.73-38.75,30.48-7,59.05,12.91,89.48,9.61,17.45-1.74,32.38-12,49.33-15.88,12.64-1.74,25,6,37.64,2.68,14-16.55,23.65-40.6,47-45.69,23.66-4.59,43.57,12.13,63.54,21.81-19.41-34.62-64.54-50.22-102-40-20.69,4.19-30.65,27.51-51.79,30.81-19.74,3.08-39.88.78-59.67-.39-4.14-14.21,11.35-24.33,22.7-28.92,31.6-12.13,62-34.23,73.77-67.11,5.7-13.53,2.68-28.86,7.55-42.39,19.63-11.57,40.88,4,60.29,8.39-12-17.11-33.73-23.71-53.75-23.1-26.23-.61-55.59,7.78-70.13,31.32,4.08,5.43,18.34,8.34,13.53,17.51-17.67,29.69-49,47.32-76.73,66.39,10.12-30.21,37.3-54.42,36.69-88.15-4.2-16-27.75-8-37-20.52,10.51-25.56,38.76-31.26,62.13-39.15-31.43,1.4-65.31,5.82-90.88,25.61M603.85,1897.63c-41.83,27.8-61.85,78.24-65.66,126.79,18.29-39.26,64.1-47.48,98.71-66.33,16.05-7.21,16.73-26.79,14.66-41.83-.9-22.1-31.83-31.66-47.71-18.63m913.35,58.72c-7.72,10.07,1.06,22.6,11.63,25.56,24.72,7.72,50.89-2.74,71.92-15.77-17,0-32.33-6.21-46.76-14.32-11.35-6.65-29.8-9.67-36.79,4.53M731.08,2097.12c-41.16,20.25-67.5,64.71-70.07,110,16.11-29.87,50.78-38.31,79.75-50.45,12.92-4.47,25.9-13.53,25.28-28.86,4.76-20-16-37.3-35-30.7m564.76,120c12.36,26.73,35.51,49.83,63.64,59.67-9.11-14.82-16.67-30.92-18.12-48.54-2.45-15.21-1.17-37.7-20.24-42-18.12-5.43-32.94,14-25.28,30.87m-441.49,2.91c-24.83,30.64-32.61,72-29.92,110.56,9.22-36.63,48.27-49.1,75.11-70,19.4-11.86,15.38-44.4-3.47-54.64-15.26-3.58-31.94,1.85-41.72,14m200.66,45.8c-27.46,28.36-30.47,72.43-24.1,109.45,8-33.61,41.33-48.59,60.79-74,14.71-22.2-15.27-49.77-36.69-35.46Z" transform="translate(0 -0.21)"/><path class="cls-2" d="M1349.75,774.62c17.84,5.48,36.57,7.27,54.69,11.74,10.52,8.06,12.09,22.32,16.39,34C1388.17,824.5,1367,797.72,1349.75,774.62Z" transform="translate(0 -0.21)"/></svg>