<?xml version="1.0" encoding="utf-8"?>
<!-- Generator: Adobe Illustrator 22.1.0, SVG Export Plug-In . SVG Version: 6.00 Build 0)  -->
<svg version="1.1" id="Layer_1" xmlns="http://www.w3.org/2000/svg" xmlns:xlink="http://www.w3.org/1999/xlink" x="0px" y="0px"
	 viewBox="0 0 651 174.1" style="enable-background:new 0 0 651 174.1;" xml:space="preserve">
<style type="text/css">
	.st0{clip-path:url(#SVGID_2_);}
	.st1{fill:url(#SVGID_3_);}
</style>
<title>logo-6</title>
<g>
	<defs>
		<path id="SVGID_1_" d="M281.3,69.7V57.5h21.3V92c0,11.6-5.7,17.3-17.3,17.3h-7.6c-11.6,0-17.3-5.7-17.3-17.3V31.6
			c0-11.6,5.7-17.3,17.3-17.3h7.4c11.5,0,17.3,5.7,17.3,17.3v15h-14.1V32.4c0-3.7-1.7-5.4-5.3-5.4h-2.9c-2.6-0.4-5,1.3-5.4,3.9
			c-0.1,0.5-0.1,1,0,1.5v58.7c-0.4,2.6,1.3,5,3.9,5.4c0.5,0.1,1,0.1,1.5,0h3.2c2.6,0.4,5-1.3,5.4-3.8l0,0c0.1-0.5,0.1-1,0-1.5V69.6
			L281.3,69.7z M331.5,15.3v80.1h15.6v12.9h-29.9v-93L331.5,15.3z M380.4,109.1h-7.6c-11.6,0-17.3-5.7-17.3-17.3v-60
			c0-11.6,5.7-17.3,17.3-17.3h7.6c11.6,0,17.3,5.7,17.3,17.3v60C397.6,103.5,391.9,109,380.4,109.1L380.4,109.1z M378.1,27.1h-2.9
			c-2.6-0.4-5,1.3-5.4,3.9c-0.1,0.5-0.1,1,0,1.5v58.5c-0.4,2.6,1.3,5,3.9,5.4c0.5,0.1,1,0.1,1.5,0h2.9c3.6,0,5.3-1.7,5.3-5.4V32.4
			c0-3.7-1.8-5.4-5.4-5.4V27.1z M453.3,76.8v31.6h-14.2V76.9c0-4.3-1.9-6-6-6h-6.4v37.3h-14.2v-93h23.2c11.6,0,17.3,5.7,17.3,17.3
			V50c0,8.2-2.9,12.2-8.1,14.4c6.1,1.6,8.6,5.2,8.6,12.2L453.3,76.8z M433.6,28.1h-6.9v30.7h6.4c4,0,5.9-1.8,5.9-5.7V33.2
			c0.4-2.6-1.4-5-3.9-5.3c0,0,0,0,0,0l0,0c-0.5-0.1-0.9-0.1-1.4,0L433.6,28.1z M482.4,108.4h-14.2V15.3h14.2V108.4z M522,109.2h-7.6
			c-11.6,0-17.2-5.7-17.2-17.3V31.6c0-11.6,5.7-17.3,17.2-17.3h7.6c11.6,0,17.3,5.7,17.3,17.3v60.2c0,11.5-5.8,17.2-17.3,17.2
			L522,109.2z M519.7,27.3h-2.9c-2.6-0.4-5,1.3-5.4,3.9c-0.1,0.5-0.1,1,0,1.5v58.4c-0.4,2.6,1.3,5,3.9,5.4c0.5,0.1,1,0.1,1.5,0h2.9
			c3.6,0,5.3-1.7,5.3-5.4V32.4c0-3.7-1.7-5.4-5.3-5.4V27.3z M595.5,92c0,11.6-5.7,17.3-17.3,17.3h-6.9c-11.6,0-17.3-5.7-17.3-17.3
			V15.3h14.2v75.9c-0.4,2.6,1.3,5,3.9,5.4c0.5,0.1,1,0.1,1.5,0h2.2c3.6,0,5.3-1.7,5.3-5.4V15.3h14.2L595.5,92z M650.8,76.9V92
			c0,11.6-5.7,17.3-17.3,17.3h-6.3c-11.6,0-17.3-5.7-17.3-17.3V72.2h13.8v19.2c0,3.6,1.7,5.3,5.4,5.3h1.9c3.7,0,5.4-1.7,5.4-5.3
			V78.4c0.2-3.1-1.4-6-4-7.6l-14.2-10.4c-5.6-3.4-8.7-9.6-8.2-16.1V31.4c0-11.6,5.7-17.3,17.3-17.3h6c11.4,0,17.3,5.7,17.3,17.3
			v16.9h-13.9V32.1c0.4-2.5-1.3-4.9-3.9-5.3c-0.5-0.1-1-0.1-1.4,0h-1.6c-2.5-0.4-4.9,1.4-5.3,3.9c0,0.5,0,0.9,0,1.4v10.3
			c-0.2,3.1,1.4,6,4,7.6l14.3,10.4c5.6,3.4,8.8,9.6,8.2,16.1L650.8,76.9z M263.4,130.6h11.6c5.9,0,8.1,1.3,8.1,6.3v4.3
			c0,5-2.2,6.4-8.1,6.4h-8.6v10.7h-3.1L263.4,130.6z M279.9,137c0-3.1-1.5-3.4-5-3.4h-8.6v11h8.7c3.4,0,5-0.4,5-3.4L279.9,137z
			 M299.7,130.3h3.2c6.4,0,9.1,1.9,9.1,7.8v1.2h-3.1v-0.8c0-4.3-1.6-5.4-6.3-5.4h-2.1c-1.9-0.3-3.9,0.2-5.5,1.3
			c-1.3,1.3-1.3,3.1-1.3,5.9v7.8c0,2.9,0,4.7,1.3,6c1.6,1.2,3.6,1.6,5.5,1.3h2.1c4.8,0,6.3-1,6.3-5.8v-1.3h3.1v1.8
			c0,6.3-2.5,8.1-9.1,8.1h-3.2c-6.8,0-9.1-2.4-9.1-9.4v-9.3C290.5,132.7,292.8,130.3,299.7,130.3L299.7,130.3z M347.7,130.3h3.5
			c6.6,0,9.9,2.2,9.9,7.1v1.2h-3V138c0-4.3-2-5-6.9-5h-2.5c-2.1-0.3-4.3,0.2-6.1,1.4c-1.3,1.2-1.4,3-1.4,5.9v7.8
			c0,2.9,0,4.7,1.4,5.9c1.8,1.2,4,1.6,6.1,1.3h2.4c1.9,0.3,3.9-0.1,5.6-1.2c1.3-1,1.3-2.8,1.3-5.4V147h-7.6v-2.8h10.7v4.6
			c0,7-2.5,9.4-9.9,9.4h-3.5c-7.3,0-9.9-2.3-9.9-9.4v-9.1C337.8,132.6,340.4,130.3,347.7,130.3L347.7,130.3z M378.4,130.6h5
			l10.2,27.4h-3.1l-2.6-7H374l-2.5,7h-3.1L378.4,130.6z M387,148.3l-5.6-14.6h-1l-5.4,14.8L387,148.3z M401.7,130.6h5l9.4,24.4
			l9.3-24.4h5V158h-3v-24.9L418,158h-3.9l-9.5-24.8V158h-3L401.7,130.6z M440.9,130.6h3.1V158h-3L440.9,130.6z M454.4,130.6h4.7
			l14.7,24.7v-24.7h3V158H472l-14.8-24.3v24.5h-3L454.4,130.6z M496.6,130.3h3.5c6.6,0,9.9,2.2,9.9,7.1v1.2h-3.1V138c0-4.3-2-5-7-5
			h-2.4c-2.1-0.3-4.3,0.2-6.1,1.4c-1.4,1.2-1.4,3-1.4,5.9v7.8c0,2.9,0,4.7,1.4,5.9c1.8,1.2,4,1.7,6.1,1.3h2.4
			c1.9,0.3,3.9-0.1,5.6-1.2c1.3-1,1.3-2.8,1.3-5.4V147H499v-2.8h10.7v4.6c0,7-2.5,9.4-9.9,9.4h-3.5c-7.3,0-9.9-2.3-9.9-9.4v-9.2
			C486.6,132.6,489.2,130.3,496.6,130.3L496.6,130.3z M537.2,130.6h12.4c5.9,0,8.1,1.3,8.1,6.3v4.3c0.4,2.3-1.2,4.5-3.5,4.9
			c2.7,0.6,3.5,2.2,3.5,5.5v6.6h-3.2v-5.8c0-4-1-5-4.6-5h-9.7V158h-3L537.2,130.6z M540.2,133.6v11h8.6c3.8,0,5.6-0.4,5.6-3.9v-3.2
			c0-3.5-1.6-3.9-5.6-3.9L540.2,133.6z M575.4,130.6h5l10.2,27.4h-3.2l-2.5-7H571l-2.5,7h-3.4L575.4,130.6z M584.1,148.3l-5.8-14.6
			h-1l-5.4,14.8L584.1,148.3z M606.5,130.3h3.2c6.4,0,9.2,1.9,9.2,7.8v1.2h-3.2v-0.8c0-4.3-1.6-5.4-6.3-5.4h-2.1
			c-1.9-0.3-3.9,0.2-5.5,1.3c-1.3,1.3-1.3,3.1-1.3,5.9v7.8c0,2.9,0,4.7,1.3,6c1.6,1.2,3.6,1.6,5.5,1.3h2.1c4.8,0,6.3-1,6.3-5.8v-1.3
			h3.2v1.8c0,6.3-2.5,8.1-9.1,8.1h-3.2c-6.8,0-9.2-2.4-9.2-9.4v-9.3C597.5,132.7,599.8,130.4,606.5,130.3L606.5,130.3z M627.6,130.7
			h19.3v3.1h-16.1v8.6h15.7v2.8h-15.7v10.1H647v2.9h-19.2L627.6,130.7z M232.9,87.7v-9.3c2.9-6.2,4.2-13.1,3.6-20
			c-0.3-5.2-1.5-10.4-3.6-15.2c-2.2,4.6-4.8,9-8,12.9c-4.9,6-13.8,9.9-26.5,9.9c-17.9,0-42.3-7.9-56.9-25.6C125.5,21,95.5,0,67.5,0
			c-12-0.3-23.6,4.4-32,13c-3-1.5-6.2-2.3-9.6-2.3c-5.9,0.3-11.4,3-15.1,7.6C3.4,26.5,3.8,36.4,12,48.5l-2.9,7.6v0.4
			c-1,3.2-0.4,6.7,1.7,9.4l4.3,5.1l-1.1,2.8c-1.2,2.8-1,6,0.4,8.6l1.6,3C13.3,85.8,5,90.6,0,88.3c-0.1,2.7,0.3,5.3,1,7.9
			c1.1,4.2,3.6,7.8,7,10.4c-4.4,8.4-5.6,18.1-3.4,27.4c7.6,29.9,27.4,31.1,31.3,31.1h1.1l7.8-0.8c9.2,6,19.8,9.4,30.7,9.8
			c5.9,0.2,11.8-1.3,16.9-4.3l8.6-5.8l-9-4.6c-2-0.9-3.9-2.1-5.6-3.5c1.9,0.4,3.8,0.6,5.7,0.6c3.7,0.1,7.3-0.8,10.5-2.5l9.7-5.8
			l-10.1-5c-2.9-1.5-5-4.3-5.6-7.6c-0.6-3.1-0.6-6.2,0-9.3c12.5,10.2,28.1,15.9,44.3,16c1,0,7.7-0.4,8.6-0.4l-4.9-4.6
			c7.8,1.8,15.7,2.7,23.7,2.8c35.7,0,50.1-16.1,55.3-20.3c3.4-3.1,6-7,7.5-11.3l-9.5,0.9c1.3-0.9,2.4-1.9,3.5-3
			C230.1,101.5,233,94.7,232.9,87.7z M133.8,127.9c2.6,3.8,6.1,6.7,10.3,8.6c-18.7,0.7-36.9-6.8-49.7-20.5c-4.3,5.7-8.1,26.4,5.5,33
			c0,0-10,5.9-24.9-5.1c0,0-2.3,12.6,14.5,21.1c0,0-20.8,14.2-56.6-17.3c-0.2,4.2,1.3,8.3,4.1,11.5c0,0-18.7,1.6-25.9-26.4
			c-2.2-10.2-0.1-20.9,6-29.4c-4.8-0.2-8.9-3.6-10-8.3c5,1.1,10.8-5.6,17.9-6.2l-5.1-9.5c-0.5-1.1-0.5-2.4,0-3.6l1.8-5
			c0.4-0.6,0.4-1.4,0-2l-6.5-7.3c-0.7-1.1-0.8-2.3-0.5-3.5l4.3-10.5c-10.2-13.1-8.2-20.2-3.6-25.3s10.9-8.9,21.6-1.5
			c24.2-32,75.3-6.4,99.9,23.4s79.1,36.9,93.3,14.7c2.4,24.9-22.2,38.2-47.4,36.1c-20.4-1.7-35.3-14.9-52.5-29.5
			c-21.6-18.4-47.4-51.8-79.4-30c-4.6,3-8.1,7.4-10.1,12.5v-0.6c7.2-10.8,19.7-17,32.6-16.2c15.1,1.4,33.1,15.5,60.1,49.8
			c29.2,37,63.5,36,86,34.5c-0.2,0-29.7,31.2-86.3,12.4L133.8,127.9z M159,94.5c31.7,13.6,54,8.1,67.9-6.7c0,23.5-37.6,33-68.2,6.7
			H159z M152.6,117.7c-28.3-3.5-40.7-29.4-47.4-45.3c12.4,18.2,34.2,41.6,47.1,45.3H152.6z M39.6,104.4c3.4,2,7.2,3.3,11.1,3.7
			c-5.8,4.5-14,4.1-19.5-0.8C36.6,105.5,39.6,104.4,39.6,104.4L39.6,104.4z M84.1,72c5.3-6,4.7-15.2-1.3-20.6c0,0,0,0,0,0l0,0
			l-0.4-0.3c-7.7-6.9-23.3-8.3-43.7,1.4c-0.8,0.3-1.8,0.3-2.6,0c-2.6-1-4.6-3.2-5.2-5.9c-1.7,4.9-3,9.9-3.8,15
			c-0.2,1.7,0.4,3.4,1.8,4.4l6.9,5.3c1.1,0.9,1.6,2.3,1.2,3.7c-1.3,4.9-2.2,9.8-2.6,14.8c-0.1,1.8,1,3.5,2.7,4.3l0.6,0.3
			c1.7,0.7,3.6,0.6,5.1-0.4c5.1-3.2,11.4-4.3,17.3-3c0.7,0.1,1.3,0.3,1.9,0.5c2.4,0.9,4.8,2,6.9,3.4c7.3,4.1,16.5,3.1,22.6-2.6
			c2.4-2.2,3.7-5.4,3.6-8.6C94.3,74.6,84.1,72,84.1,72z M73.1,71c-1,1.1-2.5,1.5-3.9,1l-7.3-2.8c0.2,0.5,0.3,1,0.3,1.6
			c0.4,2.4-1.2,4.7-3.6,5.1c-2.4,0.4-4.7-1.2-5.1-3.6l0,0l-6,2.7c-1,0.5-2.3,0-2.8-1l-2.5-5c-0.6-1.2-0.4-2.6,0.4-3.6l2.2,4
			c0.3,0.6,1.1,0.9,1.8,0.6l13.9-6.9c1-0.5,2.2-0.6,3.3-0.2l12.5,4.6L73.1,71z"/>
	</defs>
	<clipPath id="SVGID_2_">
		<use xlink:href="#SVGID_1_"  style="overflow:visible;"/>
	</clipPath>
	<g class="st0">
		
			<linearGradient id="SVGID_3_" gradientUnits="userSpaceOnUse" x1="236.1665" y1="90.1253" x2="231.8537" y2="90.1253" gradientTransform="matrix(387 0 0 50 -89755.625 -4419.98)">
			<stop  offset="0" style="stop-color:#161616"/>
			<stop  offset="0.39" style="stop-color:#030303"/>
			<stop  offset="1" style="stop-color:#1B1B1B"/>
		</linearGradient>
		<rect x="-34.4" y="-21.5" class="st1" width="1669" height="215.6"/>
	</g>
</g>
</svg>
