<svg id="Layer_1" data-name="Layer 1" xmlns="http://www.w3.org/2000/svg" viewBox="0 0 2235.15 651.28"><defs><style>.cls-1{fill:#4a4a4a;}</style></defs><title>logo-4</title><path d="M530.46,248.33h74.77L623.5,187.6,781.67,97.1l16.92-53.63H723.65l-7.95,26.9L598.64,136.51l-73.59-63.6,9-29.6H459.25L444,94.05l105.22,92Zm629.12-83.23-24.87,83.06H1473l16.91-54H1232.32l113.17-47.54L1257,97.44h261.69l16.92-54.13H1197.3l-25.54,80.86,36.37,20.8Zm-994-121.63H91.49L30.08,248.33h74.09Zm256.79,0H354.7L332,118.41H162.87L146,172.55H315.12L292.45,248h76L429.3,43.47ZM882,97.44h189.13l-5.25,16.91-63.6,26.73h-114l-16.91,54h142.26l116.56-49,31.63-102.52H823.45l-61.4,204.86h74.6Zm646.71,82.38-20.63,68.51h74.6s12.68-42.63,15.73-51.93c-22.5-6.26-45.84-11.67-69.7-16.58Zm240,12.69,107.58-43.82,31.47-105.22H1569.46l-32.14,107.59A793.61,793.61,0,0,1,1768.74,192.51ZM1628,97.44h189c-2.37,8-4.74,15.9-5.75,19.11l-58,24.53H1614.8C1617.67,132,1626.3,103.19,1628,97.44Z" transform="translate(-30.08)"/><path d="M2239,651.28c-50.75-150.56-127.55-257.47-214.67-333.08,78-76,131.27-179,140.91-318.2,0,0-31.8,138.54-203,270.66C1708.51,97.61,1404,146.83,1404,146.83a1037,1037,0,0,1,495.65,167.64c-160,101.5-413.77,189.47-813.51,192.34,0,0,572.28,86.27,883.88-142.77A1132.1,1132.1,0,0,1,2239,651.28Z" transform="translate(-30.08)"/><path class="cls-1" d="M2184,83.06a40.52,40.52,0,1,1,0,.51v-.51Zm74.6,0a33.83,33.83,0,1,0-33.83,33.83A33.83,33.83,0,0,0,2258.63,83.06Zm-13.87,22.84h-6.6l-12.85-21.32h-10V105.9h-5.76V60.73h19.63c12,0,15.9,4.4,15.9,12s-6.09,12.18-14.21,12.35Zm-21.32-25.21c6.43,0,15.91,1.18,15.91-8.12s-5.76-7.78-11.51-7.78H2215V80.86Z" transform="translate(-30.08)"/></svg>